<?xml version="1.0" standalone="no"?><!DOCTYPE svg PUBLIC "-//W3C//DTD SVG 1.1//EN" "http://www.w3.org/Graphics/SVG/1.1/DTD/svg11.dtd"><svg t="1640771496973" class="icon" viewBox="0 0 1542 1024" version="1.1" xmlns="http://www.w3.org/2000/svg" p-id="3195" xmlns:xlink="http://www.w3.org/1999/xlink" width="301.171875" height="200"><defs><style type="text/css"></style></defs><path d="M7.547912 1017.710074h1520.904176V6.289926H7.547912v1011.420148z m1523.420147 2.51597v-3.773956 3.773956zM1.257985 1024V0H1534.742015v1024H1.257985z" fill="#353636" p-id="3196"></path><path d="M3.773956 706.987715h1527.194103v77.995086H3.773956z" fill="#FFFFFF" p-id="3197"></path><path d="M3.773956 628.992629h1527.194103v77.995086H3.773956z" fill="#C22045" p-id="3198"></path><path d="M3.773956 864.235872h1527.194103v77.995086H3.773956z" fill="#FFFFFF" p-id="3199"></path><path d="M3.773956 942.230958h1527.194103v77.995086H3.773956zM3.773956 786.240786h1527.194103v77.995086H3.773956z" fill="#C22045" p-id="3200"></path><path d="M3.773956 550.997543h1527.194103v77.995086H3.773956z" fill="#FFFFFF" p-id="3201"></path><path d="M3.773956 315.7543h1527.194103V393.749386H3.773956z" fill="#C22045" p-id="3202"></path><path d="M3.773956 80.511057h1527.194103v77.995086H3.773956z" fill="#FFFFFF" p-id="3203"></path><path d="M3.773956 158.506143h1527.194103v77.995086H3.773956zM3.773956 471.744472h1527.194103v77.995086H3.773956zM3.773956 2.515971h1527.194103v77.995086H3.773956z" fill="#C22045" p-id="3204"></path><path d="M3.773956 237.759214h1527.194103v77.995086H3.773956zM3.773956 393.749386h1527.194103v77.995086H3.773956z" fill="#FFFFFF" p-id="3205"></path><path d="M3.773956 2.515971h611.380835v548.481572H3.773956z" fill="#004981" p-id="3206"></path><path d="M462.938575 31.449631l3.773956 13.837838h13.837838l-11.321868 7.547912 5.031941 12.579852-11.321867-7.547911-11.321867 7.547911 5.031941-12.579852-11.321868-7.547912h13.837838zM462.938575 145.92629l3.773956 12.579853h13.837838l-11.321868 8.805896 5.031941 12.579853-11.321867-7.547912-11.321867 7.547912 5.031941-12.579853-11.321868-8.805896h13.837838zM462.938575 260.402948l3.773956 12.579853h13.837838l-11.321868 7.547912 5.031941 13.837837-11.321867-8.805896-11.321867 8.805896 5.031941-13.837837-11.321868-7.547912h13.837838zM462.938575 376.137592l3.773956 13.837838h13.837838l-11.321868 7.547912 5.031941 12.579852-11.321867-7.547911-11.321867 7.547911 5.031941-12.579852-11.321868-7.547912h13.837838zM462.938575 488.09828l3.773956 12.579853h13.837838l-11.321868 8.805896 5.031941 12.579853-11.321867-7.547911-11.321867 7.547911 5.031941-12.579853-11.321868-8.805896h13.837838zM361.041769 31.449631l3.773956 13.837838h13.837838l-11.321868 7.547912 5.031941 12.579852-11.321867-7.547911-11.321867 7.547911 3.773955-12.579852-10.063882-7.547912h12.579853zM361.041769 145.92629l3.773956 12.579853h13.837838l-11.321868 8.805896 5.031941 12.579853-11.321867-7.547912-11.321867 7.547912 3.773955-12.579853-10.063882-8.805896h12.579853zM361.041769 260.402948l3.773956 12.579853h13.837838l-11.321868 7.547912 5.031941 13.837837-11.321867-8.805896-11.321867 8.805896 3.773955-13.837837-10.063882-7.547912h12.579853zM361.041769 376.137592l3.773956 13.837838h13.837838l-11.321868 7.547912 5.031941 12.579852-11.321867-7.547911-11.321867 7.547911 3.773955-12.579852-10.063882-7.547912h12.579853zM361.041769 488.09828l3.773956 12.579853h13.837838l-11.321868 8.805896 5.031941 12.579853-11.321867-7.547911-11.321867 7.547911 3.773955-12.579853-10.063882-8.805896h12.579853zM259.144963 31.449631l3.773956 13.837838H276.756757l-11.321868 7.547912 3.773956 12.579852-10.063882-7.547911-11.321867 7.547911 3.773956-12.579852-11.321868-7.547912h13.837838zM259.144963 145.92629l3.773956 12.579853H276.756757l-11.321868 8.805896 3.773956 12.579853-10.063882-7.547912-11.321867 7.547912 3.773956-12.579853-11.321868-8.805896h13.837838zM259.144963 260.402948l3.773956 12.579853H276.756757l-11.321868 7.547912 3.773956 13.837837-10.063882-8.805896-11.321867 8.805896 3.773956-13.837837-11.321868-7.547912h13.837838zM259.144963 376.137592l3.773956 13.837838H276.756757l-11.321868 7.547912 3.773956 12.579852-10.063882-7.547911-11.321867 7.547911 3.773956-12.579852-11.321868-7.547912h13.837838zM259.144963 488.09828l3.773956 12.579853H276.756757l-11.321868 8.805896 3.773956 12.579853-10.063882-7.547911-11.321867 7.547911 3.773956-12.579853-11.321868-8.805896h13.837838zM155.990172 31.449631l5.031941 13.837838h12.579853l-10.063882 7.547912 3.773955 12.579852-11.321867-7.547911-11.321867 7.547911 5.031941-12.579852-11.321868-7.547912h13.837838zM155.990172 145.92629l5.031941 12.579853h12.579853l-10.063882 8.805896 3.773955 12.579853-11.321867-7.547912-11.321867 7.547912 5.031941-12.579853-11.321868-8.805896h13.837838zM155.990172 260.402948l5.031941 12.579853h12.579853l-10.063882 7.547912 3.773955 13.837837-11.321867-8.805896-11.321867 8.805896 5.031941-13.837837-11.321868-7.547912h13.837838zM155.990172 376.137592l5.031941 13.837838h12.579853l-10.063882 7.547912 3.773955 12.579852-11.321867-7.547911-11.321867 7.547911 5.031941-12.579852-11.321868-7.547912h13.837838zM155.990172 488.09828l5.031941 12.579853h12.579853l-10.063882 8.805896 3.773955 12.579853-11.321867-7.547911-11.321867 7.547911 5.031941-12.579853-11.321868-8.805896h13.837838zM54.093366 31.449631l3.773956 13.837838h13.837838l-11.321868 7.547912 5.031941 12.579852-11.321867-7.547911-11.321867 7.547911 5.031941-12.579852-11.321868-7.547912H50.31941zM54.093366 145.92629l3.773956 12.579853h13.837838l-11.321868 8.805896 5.031941 12.579853-11.321867-7.547912-11.321867 7.547912 5.031941-12.579853-11.321868-8.805896H50.31941zM54.093366 260.402948l3.773956 12.579853h13.837838l-11.321868 7.547912 5.031941 13.837837-11.321867-8.805896-11.321867 8.805896 5.031941-13.837837-11.321868-7.547912H50.31941zM54.093366 376.137592l3.773956 13.837838h13.837838l-11.321868 7.547912 5.031941 12.579852-11.321867-7.547911-11.321867 7.547911 5.031941-12.579852-11.321868-7.547912H50.31941zM54.093366 488.09828l3.773956 12.579853h13.837838l-11.321868 8.805896 5.031941 12.579853-11.321867-7.547911-11.321867 7.547911 5.031941-12.579853-11.321868-8.805896H50.31941zM515.773956 89.316953l3.773956 12.579853h13.837837l-11.321867 7.547911 3.773956 13.837838-10.063882-8.805897-11.321868 8.805897 3.773956-13.837838-11.321867-7.547911h13.837838zM515.773956 206.309582l3.773956 13.837838h13.837837l-11.321867 7.547912 3.773956 12.579852-10.063882-7.547911-11.321868 7.547911 3.773956-12.579852-11.321867-7.547912h13.837838zM514.515971 322.044226l3.773955 12.579853h13.837838l-11.321867 8.805896 5.031941 12.579853-11.321867-7.547912-11.321868 7.547912 3.773956-12.579853-11.321867-8.805896h13.837837zM513.257985 436.520885l3.773956 12.579852h13.837838l-11.321867 7.547912 5.031941 13.837837-11.321868-8.805896-11.321867 8.805896 3.773956-13.837837-10.063882-7.547912h13.837837zM412.619165 89.316953l5.031941 12.579853h12.579852l-10.063882 7.547911 3.773956 13.837838-11.321867-8.805897-11.321868 8.805897 5.031941-13.837838-11.321867-7.547911h13.837838zM412.619165 206.309582l5.031941 13.837838h12.579852l-10.063882 7.547912 3.773956 12.579852-11.321867-7.547911-11.321868 7.547911 5.031941-12.579852-11.321867-7.547912h13.837838zM411.361179 322.044226l5.031941 12.579853h13.837838l-11.321867 8.805896 3.773956 12.579853-11.321868-7.547912-10.063882 7.547912 3.773956-12.579853-11.321867-8.805896h13.837838zM411.361179 436.520885l3.773956 12.579852h13.837838l-11.321867 7.547912 3.773955 13.837837-10.063882-8.805896-11.321867 8.805896 3.773956-13.837837-11.321868-7.547912h13.837838zM310.722359 84.285012l3.773955 13.837838h13.837838l-11.321867 7.547912 5.031941 12.579852-11.321867-7.547911-11.321868 7.547911 5.031941-12.579852-11.321867-7.547912h13.837838zM310.722359 202.535627l3.773955 12.579852h13.837838l-11.321867 8.805897 5.031941 12.579853-11.321867-7.547912-11.321868 7.547912 5.031941-12.579853-11.321867-8.805897h13.837838zM309.464373 318.27027l5.031941 12.579853h12.579853l-10.063882 7.547911 3.773956 13.837838-11.321868-8.805897-11.321867 8.805897 5.031941-13.837838-11.321867-7.547911h13.837838zM308.206388 431.488943l5.031941 13.837838H327.076167l-11.321867 7.547912 3.773956 12.579852-11.321868-7.547911-10.063882 7.547911 3.773956-12.579852-11.321867-7.547912h13.837837zM208.825553 84.285012l3.773956 12.579853H226.437346l-11.321867 7.547911 3.773956 13.837838-10.063882-8.805897-11.321867 8.805897L201.277641 104.412776l-11.321867-7.547911h13.837838zM208.825553 201.277641l3.773956 12.579853H226.437346l-11.321867 8.805897 3.773956 12.579852-10.063882-7.547911-11.321867 7.547911 3.773955-12.579852-11.321867-8.805897h13.837838zM207.567568 317.012285l3.773955 12.579853h13.837838l-11.321867 7.547911 5.031941 13.837838-11.321867-8.805897-11.321868 8.805897 3.773956-13.837838-10.063882-7.547911h13.837838zM206.309582 430.230958l3.773956 13.837838h13.837838l-10.063882 7.547912 3.773956 12.579852-11.321868-7.547911-11.321867 7.547911 5.031941-12.579852-11.321867-7.547912h13.837838zM105.670762 81.769042l5.031941 12.579852h13.837838l-11.321868 8.805897 3.773956 12.579853-11.321867-7.547912-10.063882 7.547912 3.773955-12.579853-11.321867-8.805897h13.837838zM105.670762 198.761671l5.031941 13.837838h13.837838l-11.321868 7.547911 3.773956 12.579853-11.321867-7.547912-10.063882 7.547912 3.773955-12.579853-11.321867-7.547911h13.837838zM105.670762 314.496314l3.773955 12.579853h13.837838l-11.321867 8.805897 3.773956 12.579852-10.063882-7.547911-11.321868 7.547911 3.773956-12.579852-11.321867-8.805897H100.638821zM104.412776 428.972973l3.773956 12.579853h13.837838l-11.321867 7.547911 5.031941 13.837838-11.321868-8.805897-11.321867 8.805897 3.773956-13.837838-10.063882-7.547911h12.579852zM564.835381 31.449631l5.031941 13.837838h13.837838l-11.321868 7.547912 3.773956 12.579852-11.321867-7.547911-10.063882 7.547911 3.773956-12.579852-11.321868-7.547912h13.837838zM564.835381 145.92629l5.031941 12.579853h13.837838l-11.321868 8.805896 3.773956 12.579853-11.321867-7.547912-10.063882 7.547912 3.773956-12.579853-11.321868-8.805896h13.837838zM564.835381 260.402948l5.031941 12.579853h13.837838l-11.321868 7.547912 3.773956 13.837837-11.321867-8.805896-10.063882 8.805896 3.773956-13.837837-11.321868-7.547912h13.837838zM564.835381 376.137592l5.031941 13.837838h13.837838l-11.321868 7.547912 3.773956 12.579852-11.321867-7.547911-10.063882 7.547911 3.773956-12.579852-11.321868-7.547912h13.837838zM564.835381 488.09828l5.031941 12.579853h13.837838l-11.321868 8.805896 3.773956 12.579853-11.321867-7.547911-10.063882 7.547911 3.773956-12.579853-11.321868-8.805896h13.837838z" fill="#FFFFFF" p-id="3207"></path></svg>