<?xml version="1.0" standalone="no"?>
<!DOCTYPE svg PUBLIC "-//W3C//DTD SVG 1.1//EN" "http://www.w3.org/Graphics/SVG/1.1/DTD/svg11.dtd" >
<!--
2013-9-30: Created.
-->
<svg>
<metadata>
Created by iconfont
</metadata>
<defs>

<font id="iconfont" horiz-adv-x="1024" >
  <font-face
    font-family="iconfont"
    font-weight="500"
    font-stretch="normal"
    units-per-em="1024"
    ascent="896"
    descent="-128"
  />
    <missing-glyph />
    
    <glyph glyph-name="x" unicode="x" horiz-adv-x="1001"
d="M281 543q-27 -1 -53 -1h-83q-18 0 -36.5 -6t-32.5 -18.5t-23 -32t-9 -45.5v-76h912v41q0 16 -0.5 30t-0.5 18q0 13 -5 29t-17 29.5t-31.5 22.5t-49.5 9h-133v-97h-438v97zM955 310v-52q0 -23 0.5 -52t0.5 -58t-10.5 -47.5t-26 -30t-33 -16t-31.5 -4.5q-14 -1 -29.5 -0.5
t-29.5 0.5h-32l-45 128h-439l-44 -128h-29h-34q-20 0 -45 1q-25 0 -41 9.5t-25.5 23t-13.5 29.5t-4 30v167h911zM163 247q-12 0 -21 -8.5t-9 -21.5t9 -21.5t21 -8.5q13 0 22 8.5t9 21.5t-9 21.5t-22 8.5zM316 123q-8 -26 -14 -48q-5 -19 -10.5 -37t-7.5 -25t-3 -15t1 -14.5
t9.5 -10.5t21.5 -4h37h67h81h80h64h36q23 0 34 12t2 38q-5 13 -9.5 30.5t-9.5 34.5q-5 19 -11 39h-368zM336 498v228q0 11 2.5 23t10 21.5t20.5 15.5t34 6h188q31 0 51.5 -14.5t20.5 -52.5v-227h-327z" />
    

    
    <glyph glyph-name="accessory" unicode="&#59101;" d="M842.72 636.096a159.04 159.04 0 0 1-113.056 46.912h-0.16a158.592 158.592 0 0 1-112.768-46.656l-0.096-0.064-294.528-294.528a95.968 95.968 0 0 1 68.128-163.712c24.512 0 49.024 9.28 67.648 27.968l294.496 294.496a31.968 31.968 0 1 1-45.248 45.248l-294.496-294.496a31.872 31.872 0 0 0-45.088 0.16 31.552 31.552 0 0 0-0.192 45.088l294.496 294.496a95.04 95.04 0 0 0 67.648 28h0.096a95.52 95.52 0 0 0 67.872-28.16c18.112-18.112 28.096-42.24 28.128-67.84a95.136 95.136 0 0 0-27.968-67.776l-79.52-79.52-0.512-0.48-220.416-220.48a160.32 160.32 0 0 0-226.432-0.096A158.912 158.912 0 0 0 224 267.776c0 42.816 16.672 83.04 46.912 113.28l300.288 300.32a31.968 31.968 0 1 1-45.248 45.248l-300.288-300.288A222.848 222.848 0 0 1 160 267.776c0-59.872 23.264-116.16 65.504-158.4a223.168 223.168 0 0 1 158.336-65.44 223.68 223.68 0 0 1 158.592 65.6l311.456 311.424a31.68 31.68 0 0 1 7.104 11.072c18.496 26.56 28.64 57.92 28.608 91.04a159.104 159.104 0 0 1-46.88 113.024"  horiz-adv-x="1024" />

    
    <glyph glyph-name="activity" unicode="&#59102;" d="M800 50.912c0-1.76-0.736-2.784-0.096-2.88l-574.656-0.416C224.992 47.808 224 48.96 224 50.912v477.12h576v-477.12zM224 685.12c0 1.728 0.64 2.752 0.096 2.912H352V672a32 32 0 1 1 64 0v16h192V672a32 32 0 1 1 64 0v16h127.008a4.736 4.736 0 0 0 0.992-2.88V592H224V685.12zM799.84 752H672V768a32 32 0 0 1-64 0v-16h-192V768a32 32 0 0 1-64 0v-16H223.712C188.576 752 160 721.984 160 685.12V50.88c0-36.896 28.608-66.88 63.744-66.88h576.512c35.136 0 63.744 29.984 63.744 66.88V685.12c0 36.896-28.768 66.912-64.16 66.912zM384 336h256a32 32 0 0 1 0 64h-256a32 32 0 0 1 0-64M384 176h256a32 32 0 0 1 0 64h-256a32 32 0 0 1 0-64"  horiz-adv-x="1024" />

    
    <glyph glyph-name="activity_fill" unicode="&#59103;" d="M799.84 752H672V768a32 32 0 0 1-64 0v-16h-192V768a32 32 0 0 1-64 0v-16H223.712C188.576 752 160 721.984 160 685.088V592h704V685.088c0 36.896-28.768 66.912-64.16 66.912M640 400a32 32 0 0 0 0-64h-256a32 32 0 0 0 0 64h256z m-288-192a32 32 0 0 0 32 32h256a32 32 0 0 0 0-64h-256a32 32 0 0 0-32 32z m480 320H160v-477.12c0-36.864 28.608-66.88 63.744-66.88h576.512c35.136 0 63.744 30.016 63.744 66.88V528h-32z"  horiz-adv-x="1024" />

    
    <glyph glyph-name="add" unicode="&#59104;" d="M512 64a32 32 0 0 1 32 32v256h256a32 32 0 0 1 0 64h-256V672a32 32 0 0 1-64 0v-256H224a32 32 0 0 1 0-64h256v-256a32 32 0 0 1 32-32"  horiz-adv-x="1024" />

    
    <glyph glyph-name="addition_fill" unicode="&#59105;" d="M683.968 361.056H544v-139.968a32 32 0 0 0-64 0v139.968h-139.968a32 32 0 0 0 0 64H480v139.968a32 32 0 0 0 64 0v-139.968h139.968a32 32 0 0 0 0-64M512 768C300.256 768 128 595.712 128 384c0-211.744 172.256-384 384-384s384 172.256 384 384c0 211.712-172.256 384-384 384"  horiz-adv-x="1024" />

    
    <glyph glyph-name="addition" unicode="&#59106;" d="M512 64c-176.448 0-320 143.552-320 320S335.552 704 512 704s320-143.552 320-320-143.552-320-320-320m0 704C300.256 768 128 595.744 128 384s172.256-384 384-384 384 172.256 384 384S723.744 768 512 768M683.936 425.056H544v139.968a32 32 0 1 1-64 0v-139.968h-139.936a32 32 0 0 1 0-64H480v-139.968a32 32 0 0 1 64 0v139.968h139.968a32 32 0 0 1 0 64"  horiz-adv-x="1024" />

    
    <glyph glyph-name="addpeople_fill" unicode="&#59107;" d="M550.4 71.584c-24.736 57.536-53.216 158.016 2.88 237.376 1.216 0.96 2.08 1.792 3.072 2.656A176.864 176.864 0 0 1 627.2 438.4c0.512 5.568 1.216 11.072 1.216 16.768V559.936C628.416 657.024 552.704 736 459.68 736c-93.024 0-168.736-78.976-168.736-176.064v-104.736c0-60.16 29.12-113.312 73.344-145.088a911.264 911.264 0 0 1-158.08-53.28C179.84 245.76 160 214.912 160 185.088v-113.76c0-3.52 0.544-6.976 1.632-10.304 8.64-26.432 31.936-44.16 58.016-44.16h309.664a29.76 29.76 0 0 1 19.68 7.936c6.592 5.888 11.04 14.304 11.04 24.064 0 0.768-0.448 2.048-0.704 3.136a69.664 69.664 0 0 1-8.928 19.584M804.48 170.752h-39.296V128c0-12.384-9.6-22.4-21.504-22.4a21.952 21.952 0 0 0-21.504 22.4v42.752H681.6a21.952 21.952 0 0 0-21.504 22.4c0 12.384 9.6 22.4 21.504 22.4h40.576V256c0 12.384 9.6 22.4 21.504 22.4 11.904 0 21.504-10.016 21.504-22.4v-40.448h39.296c11.904 0 21.504-10.016 21.504-22.4 0-12.384-9.6-22.4-21.504-22.4m-16.064 207.296A176.64 176.64 0 0 1 743.68 384c-101.632 0-184.32-86.08-184.32-192 0-105.888 82.688-192 184.32-192 15.456 0 30.4 2.24 44.736 5.952C868.48 26.88 928 102.208 928 192s-59.52 165.152-139.584 186.048"  horiz-adv-x="1024" />

    
    <glyph glyph-name="addpeople" unicode="&#59108;" d="M352.416 455.2v104.736C352.416 621.76 400.512 672 459.68 672s107.296-50.24 107.296-112.064v-104.736c0-61.792-48.128-112.064-107.296-112.064-59.168 0-107.264 50.24-107.264 112.064m176.896-374.336l-307.84 0.768v103.456c0 4.224 4.608 11.104 8.608 12.768 1.312 0.64 134.912 61.536 237.12 61.536h31.648c16.96 0 30.72 14.336 30.72 32 0 1.216-0.544 2.24-0.672 3.424 58.56 27.616 99.52 89.056 99.52 160.384v104.736C628.416 657.024 552.736 736 459.68 736c-93.024 0-168.704-78.976-168.704-176.064v-104.736c0-60.16 29.088-113.312 73.312-145.088a912.416 912.416 0 0 1-158.08-53.28C179.84 245.76 160 214.912 160 185.088v-113.76c0-3.52 0.544-6.976 1.632-10.304 8.64-26.432 31.936-44.16 58.048-44.16h309.632c16.96 0 30.72 14.336 30.72 32s-13.76 32-30.72 32M743.68 64c-67.776 0-122.88 57.408-122.88 128s55.104 128 122.88 128 122.88-57.408 122.88-128-55.104-128-122.88-128m0 320c-101.664 0-184.32-86.112-184.32-192s82.656-192 184.32-192c101.664 0 184.32 86.112 184.32 192s-82.656 192-184.32 192M804.48 215.552h-39.296V256c0 12.384-9.6 22.4-21.504 22.4a21.952 21.952 0 0 1-21.504-22.4v-40.448H681.6a21.952 21.952 0 0 1-21.504-22.4c0-12.384 9.6-22.4 21.504-22.4h40.576V128c0-12.384 9.6-22.4 21.504-22.4a21.952 21.952 0 0 1 21.504 22.4v42.752h39.296a21.952 21.952 0 0 1 21.504 22.4c0 12.384-9.6 22.4-21.504 22.4"  horiz-adv-x="1024" />

    
    <glyph glyph-name="addressbook_fill" unicode="&#59109;" d="M896 448h-128a32 32 0 0 1 0-64h128a32 32 0 0 1 0 64M896 576h-128a32 32 0 0 1 0-64h128a32 32 0 0 1 0 64M768 640h128a32 32 0 0 1 0 64h-128a32 32 0 0 1 0-64M781.76 256c-5.12 2.272-97.216 42.56-198.72 62.752 11.808 9.632 22.144 20.928 31.104 33.248a174.88 174.88 0 0 1 33.792 103.2v104.768A176.32 176.32 0 0 1 576 701.664 174.368 174.368 0 0 1 472.192 736c-96.928 0-175.776-78.976-175.776-176.032v-104.768c0-56.544 26.88-106.816 68.384-139.072-96.48-20.832-181.344-57.824-185.536-59.712C150.016 244.672 128 211.808 128 180v-131.712l1.728-5.024c9.504-27.904 35.136-46.624 63.776-46.624h572.992c33.28 0 60.832 24.864 64.96 56.96l0.544 126.4c0 15.232-5.184 30.72-13.664 44-9.088 14.272-21.952 26.016-36.576 32"  horiz-adv-x="1024" />

    
    <glyph glyph-name="addressbook" unicode="&#59110;" d="M896 576h-128a32 32 0 0 1 0-64h128a32 32 0 0 1 0 64M896 448h-128a32 32 0 0 1 0-64h128a32 32 0 0 1 0 64M768 640h128a32 32 0 0 1 0 64h-128a32 32 0 0 1 0-64M768 60.64H193.504c-0.416 0-0.96 0.256-1.504 0.672v118.688c0 5.856 5.92 14.912 12.096 17.472 1.568 0.64 156.896 68.64 275.904 68.64 118.752 0 274.368-67.968 276.672-68.992 5.312-2.208 11.328-11.328 11.328-17.12v-119.36z m-407.584 394.56v104.768a112 112 0 0 0 111.776 112 112 112 0 0 0 111.744-112v-104.768a112 112 0 0 0-111.744-112.064 112.064 112.064 0 0 0-111.776 112.064z m421.344-199.232c-5.12 2.272-97.216 42.56-198.72 62.752a175.904 175.904 0 0 1 64.896 136.448v104.768C647.936 656.992 569.088 736 472.192 736c-96.928 0-175.776-78.976-175.776-176v-104.8c0-56.544 26.88-106.816 68.384-139.072-96.48-20.8-181.344-57.824-185.536-59.712C150.016 244.64 128 211.776 128 179.968v-131.712l1.728-5.024c9.504-27.904 35.136-46.624 63.776-46.624h572.992c33.28 0 60.832 24.864 64.96 56.96l0.544 126.4c0 31.584-21.952 64.416-50.24 76z"  horiz-adv-x="1024" />

    
    <glyph glyph-name="barrage_fill" unicode="&#59111;" d="M544 448H288a32 32 0 1 0 0 64h256a32 32 0 1 0 0-64m-288-96a32 32 0 0 0 32 32h128a32 32 0 1 0 0-64H288a32 32 0 0 0-32 32m32-96h128a32 32 0 1 0 0-64H288a32 32 0 1 0 0 64M831.936 704H192.064A64 64 0 0 1 128 640.224v-512.448A64 64 0 0 1 192.064 64h639.872A64 64 0 0 1 896 127.776V640.224A64 64 0 0 1 831.936 704"  horiz-adv-x="1024" />

    
    <glyph glyph-name="barrage" unicode="&#59112;" d="M288 320h128a32 32 0 0 1 0 64H288a32 32 0 0 1 0-64M288 192h128a32 32 0 0 1 0 64H288a32 32 0 0 1 0-64M288 448h256a32 32 0 0 1 0 64H288a32 32 0 0 1 0-64M831.936 128L192 127.776V640.224L192.096 640 832 640.224 831.936 128z m0 576H192.096A64 64 0 0 1 128 640.224v-512.448A64 64 0 0 1 192.096 64h639.84A64 64 0 0 1 896 127.776V640.224A64 64 0 0 1 831.936 704z"  horiz-adv-x="1024" />

    
    <glyph glyph-name="browse_fill" unicode="&#59113;" d="M376.16 344.064v71.872a128.16 128.16 0 0 0 128 128.064c70.592 0 128-57.44 128-128.064v-71.872a128.16 128.16 0 0 0-128-128.064c-70.592 0-128 57.44-128 128.064m494.88 80.96c-2.048 4.704-26.72 59.936-78.88 116.928C733.696 605.856 640.576 672 504.16 672s-229.6-66.24-288-130.016c-52.096-56.864-76.608-111.68-78.208-115.488-12.736-24.896-13.056-60.896-2.016-82.816 0.48-1.248 24.32-60.96 80.224-121.44 57.984-62.72 150.464-126.24 288-126.24 137.504 0 230.08 63.68 288 126.208 55.872 60.32 79.52 119.616 79.552 119.776 11.744 24.896 10.88 61.664-0.672 83.008"  horiz-adv-x="1024" />

    
    <glyph glyph-name="browse" unicode="&#59114;" d="M812.896 367.104C812.16 365.056 730.816 160 504.16 160c-225.44 0-305.248 198.24-309.696 209.376-3.2 6.4-2.944 21.28 1.376 29.92C196.736 401.344 287.776 608 504.16 608c215.296 0 304.384-199.776 309.248-210.752 3.296-6.176 3.552-21.344-0.512-30.144m58.112 57.888C866.72 435.072 762.24 672 504.16 672 246.08 672 141.344 434.56 137.92 426.432c-12.704-24.896-13.056-60.896-1.984-82.752 0.96-2.496 98.048-247.68 368.224-247.68 270.144 0 367.552 245.696 367.552 246.016 11.712 24.832 10.912 61.6-0.704 82.976M568.16 344.032a64.064 64.064 0 0 0-64-64.032c-35.296 0-64 28.704-64 64.032v71.904c0 35.328 28.704 64.064 64 64.064s64-28.736 64-64.064v-71.904z m-64 199.968c-70.592 0-128-57.44-128-128.064v-71.904a128.16 128.16 0 0 1 128-128.032c70.592 0 128 57.44 128 128.032v71.904a128.16 128.16 0 0 1-128 128.064z"  horiz-adv-x="1024" />

    
    <glyph glyph-name="brush" unicode="&#59115;" d="M766.88 460.736l-176.608 176.64 66.72 66.752 176.544-176.704-66.656-66.688zM401.44 95.04L224.64 271.808l0.256-0.064L545.024 592.096l176.64-176.64L401.376 95.04zM224 94.08v87.872l87.712-87.68-87.68-0.192z m655.04 478.528l-176.768 176.736A60.96 60.96 0 0 1 656.96 768a63.968 63.968 0 0 1-45.12-18.848L179.584 316.992a63.936 63.936 0 0 1-17.92-54.368c-0.768-2.688-1.696-5.312-1.696-8.256v-160.288c0-35.136 28.576-63.68 63.712-63.68h160.32c2.88 0 5.504 0.896 8.192 1.632 2.976-0.416 5.952-0.832 8.96-0.832 16.416 0 32.896 6.272 45.44 18.816l432.16 432.16a64 64 0 0 1 0.224 90.432z"  horiz-adv-x="1024" />

    
    <glyph glyph-name="brush_fill" unicode="&#59116;" d="M879.04 572.64l-176.8 176.768a64.032 64.032 0 0 1-90.464-0.224l-67.36-67.392 44.864-44.64 0.96 0.192h0.032l176.64-176.576 30.304-30.4 14.848-14.88 66.72 66.72a64 64 0 0 1 0.224 90.432M325.888 80.64l-13.6 13.632-88.32 88.64-14.08 14.144-40.704 43.392L160 250.24v-156.128c0-35.136 28.576-63.68 63.68-63.68h154.208l-11.648 11.2-40.352 38.976zM545.024 592.128l-45.248 45.056L179.616 317.024l45.248-45.248 176.544-176.704 45.184-45.024 318.976 318.976-43.936 46.496z"  horiz-adv-x="1024" />

    
    <glyph glyph-name="businesscard_fill" unicode="&#59117;" d="M736 480h-192a32 32 0 1 0 0 64h192a32 32 0 1 0 0-64m0-128h-128a32 32 0 1 0 0 64h128a32 32 0 1 0 0-64m0-128h-128a32 32 0 1 0 0 64h128a32 32 0 1 0 0-64m-510.304 17.536L224 246.528v55.904c0 20.736 13.344 40.608 32.48 48.32 1.024 0.48 20.736 9.024 47.296 16.992a88.736 88.736 0 0 0-12.416 44.736V454.4c0 39.232 25.504 72.288 60.64 84.384 9.12 3.136 18.72 5.216 28.864 5.216a89.76 89.76 0 0 0 89.504-89.6v-41.92c0-15.744-4.416-30.336-11.584-43.2a483.2 483.2 0 0 0 53.664-18.88c12.896-5.344 23.04-16.896 28-30.4 2.112-5.632 3.552-11.52 3.552-17.568l-0.128-50.56a45.44 45.44 0 0 0-45.28-42.016H269.44a46.336 46.336 0 0 0-43.712 31.68M831.936 704H192A64.032 64.032 0 0 1 128 640.224v-512.448C128 92.64 156.8 64 192.096 64h639.84A64 64 0 0 1 896 127.776V640.224A64 64 0 0 1 831.936 704"  horiz-adv-x="1024" />

    
    <glyph glyph-name="businesscard" unicode="&#59118;" d="M736 544h-192a32 32 0 1 1 0-64h192a32 32 0 1 1 0 64M736 416h-128a32 32 0 1 1 0-64h128a32 32 0 1 1 0 64M736 288h-128a32 32 0 1 1 0-64h128a32 32 0 1 1 0 64M831.936 128L192 127.776 192.096 640 832 640.224l0.224-512.192-0.32-0.032m0 576H192.128A64.032 64.032 0 0 1 128 640.224v-512.448C128 92.64 156.768 64 192.096 64h639.84A64 64 0 0 1 896 127.776V640.224A64 64 0 0 1 831.936 704M480 273.856H288v20.736c20.64 8.32 63.84 23.04 96 23.04 31.744 0 74.656-14.496 96-23.072v-20.704zM355.36 454.4c0 14.368 11.232 25.6 25.504 25.6a25.6 25.6 0 0 0 25.504-25.6v-41.92a25.28 25.28 0 0 0-25.504-25.632 25.6 25.6 0 0 0-25.504 25.6V454.4z m157.088-104a483.2 483.2 0 0 1-53.664 18.88c7.168 12.864 11.584 27.456 11.584 43.2V454.4c0 49.408-40.16 89.6-89.504 89.6a89.664 89.664 0 0 1-89.504-89.6v-41.92c0-16.352 4.736-31.52 12.416-44.736-26.56-8-46.272-16.512-47.296-16.992A53.152 53.152 0 0 1 224 302.4v-55.904l1.696-4.992c6.464-18.976 24.032-31.68 43.712-31.68h229.184a45.44 45.44 0 0 1 45.28 42.016L544 302.4c0 20.576-13.28 40.416-31.552 47.968z"  horiz-adv-x="1024" />

    
    <glyph glyph-name="camera_fill" unicode="&#59119;" d="M528 512c88.224 0 160-71.776 160-160s-71.776-160-160-160-160 71.776-160 160 71.776 160 160 160m320 105.728a62.688 62.688 0 0 1-15.968 2.24h-104.832L704.704 672l-6.688 15.488C686.016 715.136 654.272 736 624.128 736h-192.288c-30.144 0-61.888-20.864-73.856-48.544L351.296 672l-22.496-52H223.968c-5.536 0-10.848-0.96-15.968-2.272a64.16 64.16 0 0 1-48-62.08v-439.36c0-29.888 20.448-54.816 48-62.016 5.12-1.312 10.432-2.272 15.968-2.272h608.064c5.536 0 10.848 0.96 15.968 2.24a64.224 64.224 0 0 1 48 62.048v439.36c0 29.92-20.48 54.912-48 62.08"  horiz-adv-x="1024" />

    
    <glyph glyph-name="camera" unicode="&#59120;" d="M224 116.288l-0.128 439.712h146.976l45.856 106.048c1.856 4.256 10.496 9.952 15.136 9.952h192.288c4.768 0 13.248-5.6 15.136-9.92l45.856-106.08 146.88-0.32 0.032-439.68L224 116.32zM832.032 620h-104.832l-29.184 67.52C686.016 715.104 654.272 736 624.128 736h-192.288c-30.144 0-61.888-20.864-73.856-48.544l-29.184-67.456H223.968A64.224 64.224 0 0 1 160 555.68v-439.36c0-35.488 28.672-64.32 63.968-64.32h608.064A64.192 64.192 0 0 1 896 116.32v439.36c0 35.456-28.704 64.32-63.968 64.32zM528 256c-52.928 0-96 43.072-96 96s43.072 96 96 96 96-43.072 96-96-43.072-96-96-96m0 256c-88.224 0-160-71.776-160-160s71.776-160 160-160 160 71.776 160 160-71.776 160-160 160"  horiz-adv-x="1024" />

    
    <glyph glyph-name="clock_fill" unicode="&#59121;" d="M480 363.648v199.104a32 32 0 0 0 64 0v-185.856l97.92-97.92a32 32 0 0 0-45.248-45.248l-107.296 107.296a31.904 31.904 0 0 0-9.376 22.624m32 359.104c-194.08 0-352-157.92-352-352 0-101.888 43.744-193.504 113.152-257.824a31.36 31.36 0 0 1-13.248-7.552l-58.528-58.528a31.968 31.968 0 1 1 45.248-45.248l58.528 58.56a31.52 31.52 0 0 1 8.832 19.84A349.664 349.664 0 0 1 512 18.72c71.328 0 137.664 21.44 193.152 58.048a31.04 31.04 0 0 1 8.224-16.64l58.528-58.56a31.904 31.904 0 0 1 45.248 0 32 32 0 0 1 0 45.248l-58.528 58.56a32 32 0 0 1-9.28 6.144C819.616 175.936 864 268.16 864 370.752c0 194.08-157.92 352-352 352M182.624 609.6l90.528 90.56a32 32 0 0 1-45.248 45.216L137.376 654.848A31.968 31.968 0 1 1 182.624 609.6M883.872 668.128l-90.496 90.496a31.968 31.968 0 1 1-45.248-45.248l90.496-90.496a31.904 31.904 0 0 1 45.248 0 31.968 31.968 0 0 1 0 45.248"  horiz-adv-x="1024" />

    
    <glyph glyph-name="clock" unicode="&#59122;" d="M512 82.752c-158.784 0-288 129.216-288 288s129.216 288 288 288 288-129.216 288-288-129.216-288-288-288m0 640c-194.08 0-352-157.92-352-352 0-101.856 43.744-193.472 113.152-257.824a31.04 31.04 0 0 1-13.248-7.552l-58.528-58.56a31.968 31.968 0 1 1 45.248-45.216l58.528 58.528a31.584 31.584 0 0 1 8.832 19.84A349.664 349.664 0 0 1 512 18.752c71.328 0 137.664 21.44 193.152 58.048a31.04 31.04 0 0 1 8.224-16.672l58.528-58.56a31.904 31.904 0 0 1 45.248 0 32 32 0 0 1 0 45.28l-58.528 58.528a31.36 31.36 0 0 1-9.28 6.176C819.616 175.936 864 268.16 864 370.752c0 194.08-157.92 352-352 352M544 376.896v185.856a32 32 0 0 1-64 0v-199.104c0-8.48 3.36-16.64 9.376-22.624l107.296-107.296a31.904 31.904 0 0 1 45.248 0 32 32 0 0 1 0 45.248L544 376.896zM182.624 609.6l90.528 90.56a32 32 0 0 1-45.248 45.216L137.376 654.848A31.968 31.968 0 1 1 182.624 609.6M883.872 668.128l-90.496 90.496a31.968 31.968 0 1 1-45.248-45.248l90.496-90.496a31.904 31.904 0 0 1 45.248 0 31.968 31.968 0 0 1 0 45.248"  horiz-adv-x="1024" />

    
    <glyph glyph-name="close" unicode="&#59123;" d="M544.448 396.8l284.576 284.576a32 32 0 0 1-45.248 45.248L499.2 442.048 214.624 726.624a32 32 0 0 1-45.248-45.248l284.576-284.576-284.576-284.576a32 32 0 0 1 45.248-45.248l284.576 284.576 284.576-284.576a31.904 31.904 0 0 1 45.248 0 32 32 0 0 1 0 45.248L544.448 396.8z"  horiz-adv-x="1024" />

    
    <glyph glyph-name="collection_fill" unicode="&#59124;" d="M877.632 439.2c14.976 14.72 20.384 32.96 14.816 49.984-5.536 17.024-20.608 28.544-41.344 31.584l-190.24 27.84c-6.976 1.024-18.464 9.472-21.6 15.904l-85.12 173.696c-9.28 18.944-24.896 29.76-42.88 29.76-17.952 0-33.6-10.816-42.816-29.76l-85.12-173.696c-3.104-6.432-14.592-14.848-21.6-15.904l-190.24-27.84c-20.704-3.04-35.776-14.56-41.344-31.584-5.568-17.024-0.16-35.232 14.816-49.984l137.696-135.232c5.088-4.992 9.536-18.816 8.32-25.92l-32.48-190.912c-3.552-20.832 2.752-38.816 17.344-49.344 7.52-5.44 16.224-8.16 25.472-8.16 8.576 0 17.6 2.336 26.56 7.04l170.176 90.176c6.048 3.2 20.448 3.2 26.528 0l170.144-90.112c18.528-9.856 37.504-9.44 52.064 1.056 14.56 10.528 20.864 28.48 17.344 49.28l-32.48 190.976c-1.28 7.104 3.2 20.928 8.32 25.92l137.664 135.232z"  horiz-adv-x="1024" />

    
    <glyph glyph-name="collection" unicode="&#59125;" d="M695.104 349.632c-20.16-19.808-31.328-54.4-26.56-82.368l26.976-158.56-140.992 74.688c-25.056 13.248-61.408 13.28-86.464 0l-140.992-74.656 27.008 158.56c4.736 27.904-6.464 62.528-26.56 82.336l-114.56 112.512 158.08 23.136c27.936 4.096 57.312 25.6 69.792 51.04l70.464 143.872 70.464-143.872c12.512-25.472 41.856-46.944 69.824-51.04l158.08-23.136-114.56-112.512z m182.528 89.536c14.976 14.72 20.384 32.96 14.816 50.016-5.536 17.024-20.64 28.512-41.344 31.552l-190.272 27.872c-6.944 1.024-18.432 9.472-21.6 15.872l-85.088 173.76c-9.248 18.88-24.896 29.76-42.88 29.76-17.92 0-33.568-10.88-42.848-29.76l-85.056-173.76c-3.136-6.4-14.656-14.848-21.632-15.872l-190.272-27.84c-20.704-3.072-35.744-14.56-41.28-31.584-5.6-17.024-0.192-35.264 14.784-50.016L282.624 304c5.12-5.024 9.6-18.848 8.352-25.92l-32.512-190.944c-3.52-20.8 2.784-38.816 17.344-49.344 7.52-5.44 16.256-8.16 25.472-8.16 8.576 0 17.632 2.368 26.56 7.104l170.176 90.144c6.08 3.2 20.48 3.2 26.56 0l170.144-90.144c18.496-9.824 37.504-9.408 52.032 1.056 14.56 10.56 20.896 28.512 17.376 49.312l-32.512 190.976c-1.216 7.072 3.232 20.896 8.32 25.92l137.696 135.2z"  horiz-adv-x="1024" />

    
    <glyph glyph-name="computer_fill" unicode="&#59126;" d="M221.216 308H160v-75.712c0-35.456 27.424-64.288 61.184-64.288h260.192v-52h-91.808c-16.896 0-30.624-14.336-30.624-32 0-17.696 13.728-32 30.624-32h244.864c16.896 0 30.624 14.304 30.624 32 0 17.664-13.728 32-30.624 32h-91.808V168h260.192c33.76 0 61.184 28.832 61.184 64.288v75.712H221.216zM802.816 736H221.184C187.424 736 160 707.136 160 671.68v-299.68h704V671.68C864 707.136 836.576 736 802.816 736"  horiz-adv-x="1024" />

    
    <glyph glyph-name="computer" unicode="&#59127;" d="M221.216 232.32v75.68h581.6v-76l-581.6 0.32zM802.784 671.68v-299.68H221.248V672l581.568-0.32z m0 64.32H221.216C187.424 736 160 707.136 160 671.68v-439.36c0-35.488 27.424-64.32 61.184-64.32h260.192v-52h-91.84c-16.864 0-30.592-14.336-30.592-32 0-17.696 13.728-32 30.624-32h244.864c16.896 0 30.624 14.304 30.624 32 0 17.664-13.728 32-30.624 32h-91.84V168h260.224c33.76 0 61.184 28.832 61.184 64.32V671.68C864 707.136 836.576 736 802.816 736z"  horiz-adv-x="1024" />

    
    <glyph glyph-name="coordinates_fill" unicode="&#59128;" d="M384 479.968c0 70.592 57.408 128 128 128s128-57.408 128-128-57.408-128-128-128-128 57.408-128 128m128.32 288h-0.64c-158.624-0.16-287.68-129.312-287.68-288 0-80.512 64.032-195.008 126.72-288a2026.4 2026.4 0 0 1 116.512-155.584 57.92 57.92 0 0 1 44.8-21.856h0.096a57.504 57.504 0 0 1 44.512 21.696 2024.256 2024.256 0 0 1 116.64 155.744c62.688 92.992 126.72 207.488 126.72 288 0 158.688-129.056 287.84-287.68 288"  horiz-adv-x="1024" />

    
    <glyph glyph-name="coordinates" unicode="&#59129;" d="M512 82.688C445.568 163.072 288 375.936 288 480c0 123.488 100.48 224 224 224s224-100.512 224-224c0-103.776-156.96-316.064-224-397.344M512 768c-158.784 0-288-129.184-288-288 0-148.416 217.696-413.088 243.232-443.616a57.92 57.92 0 0 1 44.8-21.856h0.096a57.6 57.6 0 0 1 44.512 21.696C581.536 65.984 800 331.328 800 480c0 158.816-129.216 288-288 288M512 416c-35.296 0-64 28.704-64 64s28.704 64 64 64 64-28.704 64-64-28.704-64-64-64m0 192c-70.592 0-128-57.408-128-128s57.408-128 128-128 128 57.408 128 128-57.408 128-128 128"  horiz-adv-x="1024" />

    
    <glyph glyph-name="coupons_fill" unicode="&#59130;" d="M608 320a22.4 22.4 0 0 0 0-44.8h-73.6v-19.2a22.4 22.4 0 1 0-44.8 0v19.2H416a22.4 22.4 0 1 0 0 44.8h73.6v51.2H416a22.4 22.4 0 1 0 0 44.8h64.384l-0.224 0.16-64 64a22.4 22.4 0 0 0 31.68 31.68l64-64 0.16-0.224 0.16 0.224 64 64a22.368 22.368 0 1 0 31.68-31.68l-64-64-0.224-0.16H608a22.4 22.4 0 0 0 0-44.8h-73.6V320H608z m256 160h32V640.224A64 64 0 0 1 831.936 704H192.064A64 64 0 0 1 128 640.224V480h32c52.928 0 96-43.072 96-96s-43.072-96-96-96H128v-160.224A64 64 0 0 1 192.064 64h639.872A64 64 0 0 1 896 127.776V288h-32c-52.928 0-96 43.072-96 96s43.072 96 96 96z"  horiz-adv-x="1024" />

    
    <glyph glyph-name="coupons" unicode="&#59131;" d="M832 227.2l-0.096-99.2L192 127.808V227.2c72.96 14.848 128 79.52 128 156.768a160.288 160.288 0 0 1-128 156.8L192.128 640 832 640.224V540.8a160.32 160.32 0 0 1-128-156.8 160.32 160.32 0 0 1 128-156.8m32 252.8h32V640.224A64 64 0 0 1 831.904 704H192.096a64 64 0 0 1-64.128-63.776V480h32c52.96 0 96-43.04 96-96 0-52.928-43.04-96-96-96H128v-160.192A64 64 0 0 1 192.064 64h639.84A64 64 0 0 1 896 127.808V288h-32c-52.928 0-96 43.072-96 96 0 52.96 43.072 96 96 96M608 371.2a22.4 22.4 0 1 1 0 44.8h-64.384c0.064 0.096 0.16 0.096 0.224 0.16l64 64a22.4 22.4 0 1 1-31.68 31.68l-64-64-0.16-0.224-0.16 0.256-64 64a22.4 22.4 0 0 1-31.68-31.712l64-64c0.064-0.064 0.16-0.064 0.224-0.16H416a22.4 22.4 0 1 1 0-44.8h73.6V320H416a22.4 22.4 0 1 1 0-44.8h73.6v-19.2a22.4 22.4 0 0 1 44.8 0v19.2H608a22.4 22.4 0 1 1 0 44.8h-73.6v51.2H608z"  horiz-adv-x="1024" />

    
    <glyph glyph-name="createtask_fill" unicode="&#59132;" d="M680.608 512h-224a32 32 0 1 0 0 64h224a32 32 0 1 0 0-64m0-160h-224a32 32 0 1 0 0 64h224a32 32 0 1 0 0-64m0-160h-224a32 32 0 1 0 0 64h224a32 32 0 1 0 0-64m-328.64 320a32 32 0 1 0 0 64 32 32 0 0 0 0-64m0-160a32.032 32.032 0 0 0 0 64 32 32 0 0 0 0-64m0-160a32.032 32.032 0 0 0 0 64 32 32 0 0 0 0-64M799.872 736H223.68A63.776 63.776 0 0 1 160 672.256v-576.512C160 60.608 188.608 32 223.776 32h576.512a63.776 63.776 0 0 1 63.68 63.744V672.256A64 64 0 0 1 799.872 736"  horiz-adv-x="1024" />

    
    <glyph glyph-name="createtask" unicode="&#59133;" d="M544 95.872l-320-0.16-0.064 96.32-0.064 160-0.032 64-0.096 160-0.032 96h576.128L800 672.224 800.256 96 544 95.872zM799.84 736H223.712A63.808 63.808 0 0 1 160 672.256v-576.544c0-35.136 28.608-63.68 63.744-63.68h576.512A63.808 63.808 0 0 1 864 95.68V672.256A64 64 0 0 1 799.84 736zM680.608 576h-224a32 32 0 0 1 0-64h224a32 32 0 0 1 0 64M680.608 416h-224a32 32 0 0 1 0-64h224a32 32 0 0 1 0 64M680.608 256h-224a32 32 0 0 1 0-64h224a32 32 0 0 1 0 64M352 576a32 32 0 1 1 0-64 32 32 0 0 1 0 64M352 416a32 32 0 1 1 0-64 32 32 0 0 1 0 64M352 256a32 32 0 1 1 0-64 32 32 0 0 1 0 64"  horiz-adv-x="1024" />

    
    <glyph glyph-name="customerservice_fill" unicode="&#59134;" d="M799.68 480H736v64.16C736 667.584 635.52 768 512 768s-224-100.416-224-223.84V480H224.32C188.864 480 160 451.328 160 416.096v-192.192C160 188.672 188.864 160 224.32 160h94.784c0.288 0 0.576-0.192 0.896-0.192 0.32 0 0.608 0.192 0.928 0.192h31.04V544.16A160.128 160.128 0 0 0 512 704c88.256 0 160-71.712 160-159.84v-384.352c0-34.112-8.32-58.24-25.504-73.696-16.576-14.848-42.912-22.816-78.144-24.256A63.776 63.776 0 0 1 512 96a64 64 0 0 1 0-128c22.816 0 42.72 12 54.048 29.984 53.312 1.408 94.24 14.528 123.168 40.544 31.04 27.872 46.784 68.704 46.784 121.28V160h63.68A64.192 64.192 0 0 1 864 223.904v192.192A64.192 64.192 0 0 1 799.68 480"  horiz-adv-x="1024" />

    
    <glyph glyph-name="customerservice" unicode="&#59135;" d="M799.68 224H736v192h63.68l0.32 0.096L799.68 224zM288 223.968l-64-0.064L224.32 416H288V223.968zM799.68 480H736v64.192C736 667.584 635.52 768 512 768s-224-100.416-224-223.808V480H224.32C188.864 480 160 451.328 160 416.096v-192.192C160 188.672 188.864 160 224.32 160h94.848c0.288 0 0.544-0.16 0.832-0.16 0.32 0 0.544 0.16 0.864 0.16H352V544.192A160.064 160.064 0 0 0 512 704c88.224 0 160-71.68 160-159.808V159.84c0-34.144-8.352-58.24-25.536-73.664-16.544-14.88-42.912-22.944-78.144-24.384A63.68 63.68 0 0 1 512 96a64 64 0 0 1 0-128c22.816 0 42.72 12.032 54.048 29.984 53.312 1.44 94.208 14.56 123.2 40.576 31.04 27.872 46.72 68.672 46.72 121.28V160h63.744A64.16 64.16 0 0 1 864 223.904v192.192A64.16 64.16 0 0 1 799.68 480z"  horiz-adv-x="1024" />

    
    <glyph glyph-name="delete_fill" unicode="&#59136;" d="M649.824 291.424a31.968 31.968 0 1 0-45.248-45.248L505.6 345.152l-98.976-98.976a31.904 31.904 0 0 0-45.248 0 32 32 0 0 0 0 45.248l98.976 98.976-98.976 98.976a32 32 0 0 0 45.248 45.248l98.976-98.976 98.976 98.976a32 32 0 0 0 45.248-45.248L550.848 390.4l98.976-98.976zM512 768C300.288 768 128 595.712 128 384c0-211.744 172.288-384 384-384 211.744 0 384 172.256 384 384 0 211.712-172.256 384-384 384z"  horiz-adv-x="1024" />

    
    <glyph glyph-name="delete" unicode="&#59137;" d="M512 64c-176.448 0-320 143.552-320 320S335.552 704 512 704s320-143.552 320-320-143.552-320-320-320m0 704C300.256 768 128 595.744 128 384s172.256-384 384-384 384 172.256 384 384S723.744 768 512 768M649.824 534.624a31.968 31.968 0 0 1-45.248 0L505.6 435.648l-98.976 98.976a31.968 31.968 0 1 1-45.248-45.248l98.976-98.976-98.976-98.976a32 32 0 0 1 45.248-45.248l98.976 98.976 98.976-98.976a31.904 31.904 0 0 1 45.248 0 31.968 31.968 0 0 1 0 45.248L550.848 390.4l98.976 98.976a31.968 31.968 0 0 1 0 45.248"  horiz-adv-x="1024" />

    
    <glyph glyph-name="document" unicode="&#59138;" d="M224 64.064V703.904L223.808 704H576v-159.936c0-35.328 28.736-64.064 64.064-64.064h159.712c0.032-0.512 0.224-1.184 0.224-1.664L800.256 64 224 64.064zM757.664 544L640 544.064V671.872L757.664 544z m76.064 11.872l-163.872 178.08C651.712 753.664 619.264 768 592.672 768H223.808A64.032 64.032 0 0 1 160 703.904v-639.84A64 64 0 0 1 223.744 0h576.512A64 64 0 0 1 864 64.128V478.336c0 25.856-12.736 58.464-30.272 77.536zM640 384h-256a32 32 0 0 1 0-64h256a32 32 0 0 1 0 64M640 224h-256a32 32 0 0 1 0-64h256a32 32 0 0 1 0 64"  horiz-adv-x="1024" />

    
    <glyph glyph-name="document_fill" unicode="&#59139;" d="M833.728 555.872l-163.904 178.144c-7.744 8.448-18.4 15.552-29.824 21.28v-211.2l202.4-0.064c-2.752 4.192-5.536 8.448-8.64 11.84M640 320h-256a32 32 0 1 0 0 64h256a32 32 0 1 0 0-64m0-160h-256a32 32 0 1 0 0 64h256a32 32 0 1 0 0-64m223.808 320h-223.744A64.128 64.128 0 0 0 576 544.128V768H223.808A64 64 0 0 1 160 703.936v-639.84A64 64 0 0 1 223.744 0h576.512A64 64 0 0 1 864 64.16V478.368c0 0.544-0.16 1.12-0.192 1.664"  horiz-adv-x="1024" />

    
    <glyph glyph-name="dynamic_fill" unicode="&#59140;" d="M763.712 407.936l-139.424-139.424a31.904 31.904 0 0 0-45.248 0l-102.336 102.336-134.208-132.864a31.936 31.936 0 0 0-45.248 0.256 32 32 0 0 0 0.224 45.248l156.832 155.264a32 32 0 0 0 45.152-0.128l102.208-102.24 116.8 116.8a31.968 31.968 0 1 0 45.248-45.248M800.256 736H223.744A63.808 63.808 0 0 1 160 672.256v-576.512C160 60.576 188.576 32 223.744 32h576.512A63.808 63.808 0 0 1 864 95.744V672.256A63.84 63.84 0 0 1 800.256 736"  horiz-adv-x="1024" />

    
    <glyph glyph-name="dynamic" unicode="&#59141;" d="M224 95.744V672l576 0.288 0.256-576.32L224 95.776zM800.256 736H223.744A63.808 63.808 0 0 1 160 672.288v-576.544C160 60.608 188.608 32 223.744 32h576.512A63.84 63.84 0 0 1 864 95.744V672.288a63.808 63.808 0 0 1-63.744 63.68zM718.464 453.184l-116.8-116.768-102.176 102.208a32 32 0 0 1-45.152 0.128l-156.832-155.2a32.032 32.032 0 0 1 45.024-45.536l134.208 132.832 102.336-102.336a32.96 32.96 0 0 1 45.248 0l139.392 139.424a31.968 31.968 0 1 1-45.248 45.248"  horiz-adv-x="1024" />

    
    <glyph glyph-name="editor" unicode="&#59142;" d="M489.376 361.376a31.904 31.904 0 0 1 45.248 0l304 304a31.968 31.968 0 1 1-45.248 45.248l-304-304a31.968 31.968 0 0 1 0-45.248M832 416a32 32 0 0 1-32-32l0.256-288L224 95.744 223.744 672H512a32 32 0 0 1 0 64H223.744A63.84 63.84 0 0 1 160 672.256v-576.512C160 60.608 188.608 32 223.744 32h576.512A63.84 63.84 0 0 1 864 95.744V384a32 32 0 0 1-32 32"  horiz-adv-x="1024" />

    
    <glyph glyph-name="eit" unicode="&#59143;" d="M597.696 469.056c-0.032-1.28-0.896-8.128-9.344-41.952l-22.304-84.384c-7.136-24.96-22.624-47.68-46.144-67.52-24.992-21.44-50.336-32.32-75.36-32.32-21.952 0-38.848 7.584-51.872 23.456-12.32 14.016-18.592 34.432-18.592 60.672 0 61.12 17.44 112.704 51.776 153.184l0.16 0.192c31.776 39.104 67.712 58.08 109.952 58.08 19.616 0 34.4-7.616 45.536-23.776 10.88-14.304 16.192-29.28 16.192-45.632m277.696-248.416a11.2 11.2 0 0 1-9.76 5.728h-53.504a11.2 11.2 0 0 1-9.12-4.704c-27.36-38.56-64.32-70.112-109.664-93.76-52.608-26.272-114.72-39.616-184.64-39.616-91.264 0-165.888 26.464-221.76 78.56-56.384 53.952-84.992 129.76-84.992 225.28 0 89.184 29.632 163.712 88.192 221.632 57.824 58.464 131.68 88.064 219.52 88.064 82.208 0 149.312-24.448 199.264-72.544C755.776 582.4 779.52 523.584 779.52 454.4c0-58.72-17.856-111.04-52.896-155.328-30.08-36.64-59.52-55.2-87.616-55.2-17.472 0-18.944 7.136-18.944 15.04 0 14.304 3.424 31.776 10.336 52.576L700.448 576a11.2 11.2 0 0 1-10.816 14.048h-48.64a11.2 11.2 0 0 1-10.784-8.16l-7.744-27.296c-19.584 35.808-50.88 53.92-93.312 53.92-60.896 0-114.496-27.2-159.136-80.64-47.04-53.696-70.848-120.96-70.848-199.904 0-43.52 13.088-80.064 38.72-108.512 25.504-28.992 60.384-43.712 103.776-43.712 45.504 0 86.176 18.464 121.152 54.912 11.648-43.072 44.128-52.928 71.36-52.928 51.296 0 99.712 27.52 144.064 82.144 44.768 58.144 67.456 123.584 67.456 194.528 0 88.864-29.216 163.168-86.88 220.8C697.92 736.832 615.04 768 512.64 768c-110.88 0-203.84-37.12-276.256-110.176C164.48 587.2 128 498.464 128 394.08c0-110.88 35.52-201.6 105.6-269.696 69.92-66.56 162.464-100.32 275.136-100.32 79.872 0 153.216 16.768 218.016 49.824 63.2 31.936 113.12 77.504 148.416 135.456a11.168 11.168 0 0 1 0.224 11.296"  horiz-adv-x="1024" />

    
    <glyph glyph-name="emoji_fill" unicode="&#59144;" d="M712.32 272a224.8 224.8 0 0 0-193.984-112 224.928 224.928 0 0 0-194.048 111.936 32 32 0 1 0 55.392 32.064 160.736 160.736 0 0 1 138.656-80 160.608 160.608 0 0 1 138.592 80 32 32 0 0 0 55.392-32zM352 512a32 32 0 1 0 64 0v-96a32 32 0 1 0-64 0v96z m256 0a32 32 0 1 0 64 0v-96a32 32 0 1 0-64 0v96z m-96 256C300.256 768 128 595.68 128 384c0-211.744 172.256-384 384-384 211.712 0 384 172.256 384 384 0 211.712-172.288 384-384 384z"  horiz-adv-x="1024" />

    
    <glyph glyph-name="emoji" unicode="&#59145;" d="M512 64c-176.448 0-320 143.552-320 320S335.552 704 512 704s320-143.552 320-320-143.552-320-320-320m0 704C300.256 768 128 595.744 128 384s172.256-384 384-384 384 172.256 384 384S723.744 768 512 768M700.64 315.712a32 32 0 0 1-43.712-11.68A160.608 160.608 0 0 0 518.304 224a160.576 160.576 0 0 0-138.592 80 32 32 0 0 1-55.424-32.032 224.896 224.896 0 0 1 194.016-112 224.768 224.768 0 0 1 194.016 112 32 32 0 0 1-11.68 43.744M384 384a32 32 0 0 1 32 32v96a32 32 0 0 1-64 0v-96a32 32 0 0 1 32-32M640 384a32 32 0 0 1 32 32v96a32 32 0 0 1-64 0v-96a32 32 0 0 1 32-32"  horiz-adv-x="1024" />

    
    <glyph glyph-name="empty" unicode="&#59146;" d="M590.208 441.824v-210.496a32 32 0 1 1 64 0v210.496a32 32 0 1 1-64 0M398.208 441.824v-210.496a32 32 0 1 1 64 0v210.496a32 32 0 1 1-64 0M377.664 636.416l-8.896 63.36 253.504 35.648 8.928-63.392-253.536-35.616z m443.616 62.336l-126.72-17.792-11.872 84.416a36.512 36.512 0 0 1-14.432 24.224c-16.416 12.384-41.28 11.072-54.752 9.216L359.68 763.136c-46.592-6.56-60.16-30.688-57.28-51.072l11.84-84.544-126.72-17.824a32 32 0 1 1 8.928-63.36l45.92 6.432a31.36 31.36 0 0 1-4.192-14.976v-447.936c0-35.328 28.704-64.032 64-64.032h447.968a64.096 64.096 0 0 1 64 64.032V537.792a32 32 0 1 1-64 0v-447.968l-448 0.032V537.792a31.744 31.744 0 0 1-8.992 22.112l537.056 75.488a32 32 0 0 1 27.2 36.16 31.648 31.648 0 0 1-36.16 27.2z"  horiz-adv-x="1024" />

    
    <glyph glyph-name="empty_fill" unicode="&#59147;" d="M821.344 698.752l-126.752-17.824-11.904 84.512a36.48 36.48 0 0 1-14.464 24.192c-16.416 12.384-41.376 11.072-54.688 9.152l-253.792-35.648c-46.624-6.56-60.16-30.688-57.312-51.072l11.008-78.24 0.896-6.336-76.128-10.688-50.656-7.136a32 32 0 1 1 8.928-63.36l23.552 3.328 18.176 2.528 4.224 0.608 50.752 7.136 63.936 8.992 73.088 10.272 192 26.976 192 27.008 16.032 2.24c17.504 2.432 29.696 18.624 27.232 36.128s-18.528 29.76-36.128 27.232zM398.208 441.792a32 32 0 0 0 64 0v-210.496a32 32 0 0 0-64 0v210.496z m192 0a32 32 0 0 0 64 0v-210.496a32 32 0 0 0-64 0v210.496z m-352 40.736v-392.704c0-20.608 9.984-38.816 25.184-50.56 10.816-8.32 24.192-13.44 38.848-13.44h447.936a63.36 63.36 0 0 1 38.816 13.44c15.232 11.712 25.216 29.888 25.216 50.56V501.824H237.344l0.864-19.328z"  horiz-adv-x="1024" />

    
    <glyph glyph-name="enter" unicode="&#59148;" d="M693.792 397.76l-320 297.664a32 32 0 0 1-43.584-46.848l295.36-274.752-295.84-286.848a31.968 31.968 0 1 1 44.544-45.92l320 310.272a31.968 31.968 0 0 1-0.48 46.4"  horiz-adv-x="1024" />

    
    <glyph glyph-name="enterinto" unicode="&#59149;" d="M512 64c-176.448 0-320 143.552-320 320S335.552 704 512 704s320-143.552 320-320-143.552-320-320-320m0 704C300.256 768 128 595.744 128 384s172.256-384 384-384 384 172.256 384 384S723.744 768 512 768M469.376 535.808a31.968 31.968 0 1 1-42.752-47.616l134.016-120.32-134.496-125.856a32 32 0 0 1 43.712-46.72l160 149.696a31.968 31.968 0 0 1-0.48 47.168l-160 143.68z"  horiz-adv-x="1024" />

    
    <glyph glyph-name="enterinto_fill" unicode="&#59150;" d="M629.856 345.024l-160-149.76a31.904 31.904 0 0 0-45.216 1.504 31.936 31.936 0 0 0 1.504 45.216l134.496 125.888-134.016 120.32a32 32 0 1 0 42.752 47.616l160-143.616a31.904 31.904 0 0 0 0.48-47.168M512 768C300.256 768 128 595.744 128 384c0-211.712 172.256-384 384-384s384 172.288 384 384c0 211.744-172.256 384-384 384"  horiz-adv-x="1024" />

    
    <glyph glyph-name="feedback_fill" unicode="&#59151;" d="M544 314.304v-15.488a32 32 0 1 0-64 0V336c0 14.848 10.304 26.752 24 30.4 72.032 30.08 72.064 74.688 72 76.608l-0.032 49.184c0 28.544-28.704 51.84-64 51.84-35.264 0-63.968-23.296-63.968-51.84v-15.584a32 32 0 0 0-64 0v15.584c0 63.84 57.408 115.84 127.968 115.84 70.592 0 128-52 128-115.84v-47.584c0.16-1.28 4.672-80.768-95.968-130.304M512 160a32 32 0 1 0 0 64 32 32 0 0 0 0-64m0 608C300.256 768 128 595.712 128 384c0-211.744 172.256-384 384-384s384 172.256 384 384c0 211.712-172.256 384-384 384"  horiz-adv-x="1024" />

    
    <glyph glyph-name="feedback" unicode="&#59152;" d="M704 128.608A318.016 318.016 0 0 0 512 64a318.016 318.016 0 0 0-192 64.608C242.464 187.072 192 279.616 192 384c0 176.448 143.552 320 320 320s320-143.552 320-320c0-104.384-50.464-196.928-128-255.392M512 768C300.256 768 128 595.744 128 384c0-141.76 77.408-265.504 192-332.032A381.312 381.312 0 0 1 511.936 0h0.128A381.312 381.312 0 0 1 704 51.968c114.592 66.528 192 190.272 192 332.032 0 211.744-172.256 384-384 384M639.936 492.16C639.936 556.096 582.528 608 512 608c-70.592 0-128-51.936-128-115.84v-15.52a32 32 0 1 1 64 0v15.552c0 28.576 28.736 51.808 64 51.808 35.296 0 64-23.232 64-51.84v-49.152c0.064-1.536-0.544-31.616-39.808-59.008a169.44 169.44 0 0 0-32.16-17.6 31.584 31.584 0 0 1-24-30.4v-37.184a32 32 0 0 1 64 0v15.488c41.952 20.672 65.696 46.464 79.04 69.696 18.56 32.512 16.992 59.84 16.896 60.64V492.16zM512 224a32 32 0 1 1 0-64 32 32 0 0 1 0 64"  horiz-adv-x="1024" />

    
    <glyph glyph-name="flag_fill" unicode="&#59153;" d="M788.352 352.64l-111.168 153.312 111.168 153.376c12.16 16.8 14.528 35.584 6.4 51.552C786.624 726.816 769.984 736 749.12 736H288.064A63.968 63.968 0 0 1 224 672.224V32a32 32 0 0 1 64 0v243.968h461.12c20.992 0 37.696 9.184 45.824 25.088 8.064 15.84 5.696 34.656-6.592 51.584"  horiz-adv-x="1024" />

    
    <glyph glyph-name="flag" unicode="&#59154;" d="M288 339.744V672.288l430.464-0.32-120.352-165.952 120.384-166.016L288 339.744z m500.352 12.928l-111.168 153.344 111.168 153.344c12.192 16.832 14.528 35.648 6.368 51.584-8.128 15.936-24.736 25.056-45.568 25.056H288.064A63.968 63.968 0 0 1 224 672.288V32a32 32 0 0 1 64 0v244H749.152c20.96 0 37.664 9.12 45.76 25.024 8.096 15.872 5.728 34.72-6.56 51.648z"  horiz-adv-x="1024" />

    
    <glyph glyph-name="flashlight" unicode="&#59155;" d="M488.64 139.392l38.08 148a32 32 0 0 1-27.008 39.744l-210.432 26.176 243.648 267.328-37.088-148.32a32 32 0 0 1 27.104-39.52l211.392-26.176-245.728-267.2z m341.408 302.4a32.096 32.096 0 0 1-26.112 20.736l-237.248 29.344 59.136 236.352a32.032 32.032 0 0 1-54.72 29.312L200.32 350.752a32 32 0 0 1 19.712-53.312l235.68-29.312-60.864-236.352a32 32 0 0 1 54.528-29.632l374.208 406.944c8.096 8.832 10.56 21.44 6.464 32.704z"  horiz-adv-x="1024" />

    
    <glyph glyph-name="flashlight_fill" unicode="&#59156;" d="M830.016 441.76a32 32 0 0 1-26.112 20.736l-237.216 29.344 59.136 236.384a31.968 31.968 0 0 1-54.688 29.312L200.32 350.72a32 32 0 0 1 19.712-53.312l235.648-29.28-60.896-236.32a32.032 32.032 0 0 1 54.56-29.664l374.208 406.944a32 32 0 0 1 6.464 32.672"  horiz-adv-x="1024" />

    
    <glyph glyph-name="flip" unicode="&#59157;" d="M401.408 384c0 52.928 43.072 96 96 96s96-43.072 96-96-43.072-96-96-96-96 43.072-96 96m256 0c0 88.224-71.776 160-160 160s-160-71.776-160-160 71.776-160 160-160 160 71.776 160 160M890.336 326.112a31.584 31.584 0 0 1-40.928 2.88V671.712a64.128 64.128 0 0 1-63.744 64.32H209.12a63.776 63.776 0 0 1-63.68-63.776v-65.152a32 32 0 1 1 64 0L209.088 672l576.32-0.288V330.56a31.52 31.52 0 0 1-38.624-4.416 31.968 31.968 0 0 1 0-45.248l49.12-49.152a31.968 31.968 0 0 1 45.248 0l49.152 49.152a31.968 31.968 0 0 1 0 45.248M817.408 191.936a32 32 0 0 1-32-32L785.664 96l-576.256 0.32V433.28a31.648 31.648 0 0 1 16.864-5.568 31.968 31.968 0 0 1 22.624 54.624L199.776 531.52a32 32 0 0 1-45.248 0l-49.152-49.152a31.968 31.968 0 0 1 0-45.248 31.552 31.552 0 0 1 40-3.456V96.32c0-35.456 28.64-64.32 63.776-64.32h576.512a63.936 63.936 0 0 1 63.744 64v64a32 32 0 0 1-32 32"  horiz-adv-x="1024" />

    
    <glyph glyph-name="flip_fill" unicode="&#59158;" d="M657.408 384c0 88.224-71.776 160-160 160s-160-71.776-160-160 71.776-160 160-160 160 71.776 160 160M890.336 326.112a31.616 31.616 0 0 1-40.928 2.88V671.712a64.128 64.128 0 0 1-63.744 64.32H209.152a63.808 63.808 0 0 1-63.744-63.808v-65.152a32 32 0 1 1 64 0l-0.256 64.96 576.256-0.32v-341.12a31.584 31.584 0 0 1-38.592-4.48 31.968 31.968 0 0 1 0-45.248l49.152-49.152a31.904 31.904 0 0 1 45.248 0l49.152 49.152a32 32 0 0 1 0 45.248M817.408 191.936a32 32 0 0 1-32-32L785.664 96l-576.256 0.32V433.28a31.648 31.648 0 0 1 16.864-5.568 32 32 0 0 1 22.656 54.624l-49.12 49.152a32 32 0 0 1-45.28 0l-49.152-49.152a31.968 31.968 0 0 1 0-45.248c10.944-10.976 27.616-11.712 40-3.456V96.32c0-35.488 28.64-64.32 63.776-64.32h576.512a63.904 63.904 0 0 1 63.744 63.936v64a32 32 0 0 1-32 32"  horiz-adv-x="1024" />

    
    <glyph glyph-name="fullscreen" unicode="&#59159;" d="M409.376 342.624L224 157.248V288a32 32 0 0 1-64 0v-192.544c0-3.488 0.48-6.848 1.024-10.176a31.456 31.456 0 0 1 8.352-27.904c2.336-2.336 5.152-3.808 7.904-5.248 11.648-12.48 28.096-20.384 46.464-20.384h192.512a32 32 0 1 1 0 64l-163.488-0.224 201.856 201.856a31.968 31.968 0 1 1-45.248 45.248M800.512 736H608a32 32 0 0 1 0-64l146.944 0.192-201.568-201.568a31.968 31.968 0 1 1 45.248-45.248l201.632 201.632v-147.264a32 32 0 1 1 64 0V672.256A63.84 63.84 0 0 1 800.512 736"  horiz-adv-x="1024" />

    
    <glyph glyph-name="group" unicode="&#59160;" d="M864 51.232a2.464 2.464 0 0 0-1.504-0.704L288 51.904V169.92c0 5.824 6.016 14.944 12.096 17.44C301.664 188 456.992 256 576 256c118.752 0 274.336-68 276.864-69.088 5.216-2.08 11.136-11.168 11.136-17.024v-118.656zM480.48 455.2v104.736A112.064 112.064 0 0 0 592.256 672 112 112 0 0 0 704 559.936v-104.736a112 112 0 0 0-111.744-112.064 112 112 0 0 0-111.776 112.064z m397.248-209.28c-4.992 2.176-92.64 40.384-191.008 61.056A176 176 0 0 1 768 455.2v104.736C768 657.024 689.152 736 592.256 736c-96.928 0-175.776-78.976-175.776-176.064v-104.736c0-59.136 29.344-111.456 74.112-143.36-108.16-18.72-210.752-63.488-215.552-65.6C245.952 234.24 224 201.44 224 169.856v-126.4h0.544a65.536 65.536 0 0 1 64.96-56.96h572.992c28.672 0 54.304 18.752 63.808 46.72l1.696 4.96V169.92c0 31.808-22.016 64.672-50.272 76zM360.384 322.56c1.024 0 1.952-0.288 2.976-0.288a32 32 0 1 1 0 64A68.736 68.736 0 0 0 294.72 455.04v84.256C294.72 577.152 325.504 608 363.36 608a32 32 0 0 1 0 64 132.832 132.832 0 0 1-132.64-132.736v-84.256c0-32.736 12.352-62.368 32.064-85.536-62.72-19.296-117.536-49.696-127.584-55.456C112.352 303.2 96 277.312 96 251.552v-91.904a32 32 0 1 1 64 0v91.744a11.424 11.424 0 0 0 2.336 4.672 28.992 28.992 0 0 1 3.584 1.824c30.432 17.728 123.84 63.712 189.76 63.712 1.632 0 3.104 0.704 4.704 0.96"  horiz-adv-x="1024" />

    
    <glyph glyph-name="group_fill" unicode="&#59161;" d="M877.728 245.888c-4.992 2.208-92.64 40.416-191.04 61.088A176 176 0 0 1 768 455.2v104.736C768 657.024 689.184 736 592.288 736a175.168 175.168 0 0 1-131.584-59.712 175.424 175.424 0 0 1-44.192-116.352v-104.736c0-59.136 29.344-111.456 74.112-143.392-108.16-18.688-210.752-63.456-215.552-65.6C245.92 234.272 224 201.472 224 169.888v-126.4h0.544a65.536 65.536 0 0 1 64.96-56.96h572.992c28.672 0 54.304 18.752 63.808 46.688l1.696 4.992v131.68c0 31.808-22.016 64.672-50.272 76M322.432 318.112c34.976 10.912 51.552 17.024 51.552 17.024s22.656 9.984 16.672 29.984c-14.016 26.688-24 47.36-24 125.344V591.808s6.016 49.312 24.992 53.984c1.536 1.632 1.792 4.032 1.12 6.72a31.936 31.936 0 0 1-29.408 19.52 132.832 132.832 0 0 1-132.64-132.768v-84.256c0-32.736 12.352-62.368 32.064-85.536-62.72-19.296-117.536-49.696-127.584-55.456C112.352 303.2 96 277.312 96 251.552v-91.904a32 32 0 0 1 32-32 31.68 31.68 0 0 1 31.296 28.48c0.128 1.184 0.704 2.272 0.704 3.52v14.656c2.56 30.304 13.92 85.312 60.992 111.072 7.2 3.2 14.88 6.336 22.72 9.44a2978.88 2978.88 0 0 1 78.72 23.296"  horiz-adv-x="1024" />

    
    <glyph glyph-name="headlines_fill" unicode="&#59162;" d="M768 384h-192v192h192v-192z m-320-32a32 32 0 0 0-32-32H288a32 32 0 0 0 0 64h128c8.544 0 16.192-3.456 21.92-8.896A31.776 31.776 0 0 0 448 352z m128-128a32 32 0 0 0-32-32H288a32 32 0 0 0 0 64h256c8.544 0 16.192-3.456 21.92-8.896A31.776 31.776 0 0 0 576 224z m255.904 480H192.064A64 64 0 0 1 128 640.224v-512.448c0-8.064 1.664-15.712 4.416-22.816 0.256-0.64 0.352-1.344 0.608-1.984 0.768-1.792 1.888-3.392 2.816-5.12 1.024-1.92 1.888-3.936 3.104-5.696 0.64-0.96 1.472-1.696 2.144-2.592 1.792-2.368 3.584-4.8 5.696-6.848 0.992-0.992 2.176-1.728 3.2-2.656 2.048-1.792 4.032-3.648 6.304-5.152 0.448-0.32 1.024-0.512 1.504-0.832 2.976-1.92 6.048-3.68 9.376-5.056 3.232-1.376 6.688-2.336 10.176-3.136 0.608-0.16 1.184-0.448 1.824-0.576 4.16-0.864 8.48-1.312 12.928-1.312h639.84A64 64 0 0 1 896 127.776V640.192A64 64 0 0 1 831.904 704z"  horiz-adv-x="1024" />

    
    <glyph glyph-name="headlines" unicode="&#59163;" d="M831.904 128L192 127.776 192.096 640 832 640.192l0.224-512.16-0.32-0.032m0 576H192.096A64 64 0 0 1 128 640.192v-512.416A64 64 0 0 1 192.096 64h639.808A64.032 64.032 0 0 1 896 127.776V640.192A64.032 64.032 0 0 1 831.904 704M288 320h128a32 32 0 1 1 0 64H288a32 32 0 1 1 0-64M544 256H288a32 32 0 1 1 0-64h256a32 32 0 1 1 0 64M512 576v-256h256v256h-256z m192-192h-128v128h128v-128z"  horiz-adv-x="1024" />

    
    <glyph glyph-name="homepage_fill" unicode="&#59164;" d="M640 105.472H297.504v0.096l86.496-0.032v118.88c0 0.8 0.224 1.536 0.224 2.304 1.28 69.6 57.984 125.888 127.776 125.888s126.496-56.32 127.776-125.888c0-0.768 0.224-1.504 0.224-2.304v-118.944z m240.896 427.68L800 586.144V688.832a32 32 0 1 1-64 0v-60.8l-206.464 135.328A31.296 31.296 0 0 1 511.424 768a31.168 31.168 0 0 1-17.6-4.64L142.464 533.12a32 32 0 0 1 35.072-53.536L192 489.088V96c0-30.08 27.168-54.592 60.576-54.592h518.848C804.832 41.44 832 65.92 832 96V488.64l13.856-9.056a31.968 31.968 0 0 1 35.04 53.536z"  horiz-adv-x="1024" />

    
    <glyph glyph-name="homepage" unicode="&#59165;" d="M768 105.44l-128 0.032v118.944a128.224 128.224 0 0 1-128 128.192c-70.592 0-128-57.504-128-128.192v-118.88l-128 0.032V531.008l255.68 167.52L768 530.624v-425.184z m-192 0.032l-128 0.032v118.912c0 35.392 28.704 64.192 64 64.192s64-28.8 64-64.192v-118.944z m304.896 427.68L800 586.144V688.832a32 32 0 1 1-64 0v-60.768l-206.464 135.296A31.296 31.296 0 0 1 511.424 768a31.168 31.168 0 0 1-17.6-4.64l-351.36-230.208a32 32 0 0 1 35.072-53.536L192 489.088v-393.056c0-30.08 27.2-54.592 60.576-54.592h518.848c33.408 0 60.576 24.512 60.576 54.592v392.64l13.856-9.056a31.968 31.968 0 0 1 35.04 53.536z"  horiz-adv-x="1024" />

    
    <glyph glyph-name="integral_fill" unicode="&#59166;" d="M615.04 448h-224a32 32 0 0 0 0 64h224a32 32 0 0 0 0-64m257.184 69.792L815.68 654.464a72.064 72.064 0 0 1-8.64 14.816V672h-2.048c-15.264 19.008-39.68 32-63.488 32H264.48c-23.776 0-48.224-12.96-63.456-32H199.04v-2.752a70.4 70.4 0 0 1-8.704-14.88L133.76 517.536c-11.2-27.136-5.632-64.608 12.992-87.2l52.256-63.36L264.16 288l193.696-234.88c11.52-13.92 27.968-21.92 45.12-21.92h0.032c17.184 0 33.632 8.032 45.12 21.952L741.76 288l65.28 79.232 52.224 63.36c18.944 22.944 24.384 59.616 12.992 87.2"  horiz-adv-x="1024" />

    
    <glyph glyph-name="integral" unicode="&#59167;" d="M809.856 471.296l-306.88-372.288L196.16 471.04c-3.68 4.48-5.44 16.64-3.2 22.08l56.544 136.832c1.856 4.512 10.144 10.048 15.04 10.048h476.992c4.8 0 13.216-5.632 15.04-10.048l56.544-136.64c2.336-5.632 0.64-17.344-3.2-22.016m62.336 46.496L815.68 654.464C803.936 682.688 772.064 704 741.504 704H264.48c-30.592 0-62.496-21.344-74.176-49.632L133.76 517.536c-11.2-27.136-5.632-64.608 12.992-87.2l311.104-377.216c11.52-13.92 27.968-21.92 45.12-21.92h0.032c17.184 0 33.632 8.032 45.12 21.952l311.104 377.44c18.944 22.944 24.384 59.616 12.992 87.2M615.008 512h-224a32 32 0 0 1 0-64h224a32 32 0 0 1 0 64"  horiz-adv-x="1024" />

    
    <glyph glyph-name="interactive_fill" unicode="&#59168;" d="M688 480a48 48 0 0 0-0.064 96h0.128a48 48 0 0 0-0.064-96m-160 0a48 48 0 0 0-0.064 96h0.128a48 48 0 0 0-0.064-96m362.848 256h-0.032c-8.544 18.88-26.848 32-48.16 32H373.344c-21.312 0-39.648-13.12-48.16-32a56.512 56.512 0 0 1-5.184-23.264V576H160h53.344C183.936 576 160 551.168 160 520.64v-377.152c0-30.56 24-55.36 53.44-55.36H274.528c1.376-0.064 3.488-0.96 5.408-2.144l0.256-45.856c0-2.784 0.64-5.44 1.376-8.128a31.552 31.552 0 0 1 5.248-11.2c10.176-13.216 24.96-20.8 40.672-20.8h0.064c14.784 0 28.736 6.72 38.816 18.464l14.24 13.536 44.864 42.688c1.984 1.856 4.768 5.824 6.208 8.128a15.84 15.84 0 0 0 9.056 5.28h241.952c15.296 0 29.088 6.752 38.848 17.504l-0.352 0.352h0.544l-28.96 27.328-19.584 18.816h-0.352l-79.84 75.392H384c-115.04 0.992-118.016 94.976-118.016 94.976V540.8c0.128 1.088 0.672 2.08 0.672 3.232 0 1.152-0.544 2.112-0.672 3.232v0.256h-0.032A31.68 31.68 0 0 1 234.656 576H320v-240.608c0-5.376 0.992-10.464 2.4-15.36 6.496-23.008 26.752-39.936 50.912-39.936h241.952a15.84 15.84 0 0 0 9.024-5.216 31.776 31.776 0 0 1 6.24-8.192l59.136-56.224c10.048-11.744 24.064-18.464 38.816-18.464 2.56 0 5.024 0.512 7.52 0.896a51.84 51.84 0 0 1 33.184 19.904c4.256 5.536 6.592 12.32 6.656 19.328l0.256 45.856a13.216 13.216 0 0 0 5.344 2.112h61.12c24.256 0 44.544 16.96 51.072 39.904a56.32 56.32 0 0 1 2.368 15.488V712.64c0 8.384-1.92 16.256-5.152 23.392"  horiz-adv-x="1024" />

    
    <glyph glyph-name="interactive" unicode="&#59169;" d="M704 175.456c-14.688 0-27.104-9.92-30.848-23.36h-232.448c-23.904 0-49.152-14.048-62.4-34.016l-34.4-32.64-0.064 12.576a32.48 32.48 0 0 1-3.68 14.752c-12.032 22.752-39.584 39.296-65.6 39.296H224V512h10.656a32 32 0 1 1 0 64h-21.312C183.936 576 160 551.136 160 520.576v-377.12c0-30.56 24-55.36 53.472-55.36h61.056a14.144 14.144 0 0 0 5.376-2.144l0.288-45.856a31.936 31.936 0 0 1 6.624-19.328c10.144-13.216 24.992-20.8 40.704-20.768h0.032c14.752 0 28.768 6.72 38.816 18.464l59.104 56.192c1.952 1.856 4.768 5.824 6.176 8.128a15.968 15.968 0 0 0 9.056 5.28h241.984a53.12 53.12 0 0 1 47.296 29.824 31.68 31.68 0 0 1 6.016 18.688v6.88a32 32 0 0 1-32 32M832 344.064h-50.56c-16.032 0-32.224-6.752-45.44-16.896-3.04-2.336-6.24-4.448-8.896-7.168a68.736 68.736 0 0 1-11.264-15.232 32.256 32.256 0 0 1-3.68-14.72l-0.064-12.64-34.4 32.672c-2.4 3.616-5.536 6.752-8.64 9.92-14.048 14.4-34.176 24.064-53.76 24.064H384V704h448v-359.936zM890.848 736c-8.544 18.848-26.848 32-48.192 32H373.344c-21.344 0-39.648-13.152-48.192-32a56.96 56.96 0 0 1-5.152-23.392v-377.152c0-5.408 0.992-10.528 2.368-15.456 6.496-23.008 26.752-39.936 50.944-39.936h241.952a15.968 15.968 0 0 0 9.024-5.184 31.392 31.392 0 0 1 6.24-8.224l59.104-56.192c10.048-11.776 24.064-18.464 38.816-18.464h0.032c15.712 0 30.56 7.552 40.704 20.768a31.936 31.936 0 0 1 6.624 19.328l0.288 45.888a13.568 13.568 0 0 0 5.344 2.08h61.088c24.256 0 44.576 16.928 51.072 39.936 1.408 4.928 2.4 10.048 2.4 15.456V712.608A56.96 56.96 0 0 1 890.848 736zM528 576a48 48 0 1 1 0.032-96.032 48 48 0 0 1-0.032 96M688 576a48 48 0 1 1 0.032-96.032 48 48 0 0 1-0.032 96"  horiz-adv-x="1024" />

    
    <glyph glyph-name="keyboard" unicode="&#59170;" d="M224 544h64a32 32 0 0 1 0 64H224a32 32 0 0 1 0-64M224 352h64a32 32 0 0 1 0 64H224a32 32 0 0 1 0-64M384 544h64a32 32 0 0 1 0 64h-64a32 32 0 0 1 0-64M384 352h64a32 32 0 0 1 0 64h-64a32 32 0 0 1 0-64M544 544h64a32 32 0 0 1 0 64h-64a32 32 0 0 1 0-64M704 544h64a32 32 0 0 1 0 64h-64a32 32 0 0 1 0-64M544 352h64a32 32 0 0 1 0 64h-64a32 32 0 0 1 0-64M704 352h64a32 32 0 0 1 0 64h-64a32 32 0 0 1 0-64M779.776 224H224a32 32 0 0 1 0-64h555.776a32 32 0 0 1 0 64"  horiz-adv-x="1024" />

    
    <glyph glyph-name="label" unicode="&#59171;" d="M796.992 398.304l-333.376-333.44h-0.128L191.904 336.32l333.44 333.44C533.472 670.592 553.6 672 601.28 672c82.24 0 191.68-4 193.824-5.12 4.16-111.296 5.824-236.896 1.92-268.576m62.08 269.76c0 35.2-28.64 63.84-62.656 63.84h-0.064C795.296 731.936 684.704 736 601.28 736c-96.16 0-104.8-4.64-115.2-15.04L146.656 381.536c-24.96-24.96-24.896-65.6 0.16-90.656l271.232-271.232c12.16-12.128 28.256-18.784 45.44-18.784 17.152 0 33.184 6.624 45.184 18.624l339.424 339.424c11.2 11.2 21.76 21.76 10.976 309.152M609.376 455.712c-26.464 0-48 21.536-48 48s21.536 48 48 48 48-21.536 48-48-21.536-48-48-48m0 160c-61.76 0-112-50.24-112-112s50.24-112 112-112 112 50.24 112 112-50.24 112-112 112"  horiz-adv-x="1024" />

    
    <glyph glyph-name="label_fill" unicode="&#59172;" d="M497.376 503.712c0 61.76 50.24 112 112 112s112-50.24 112-112-50.24-112-112-112-112 50.24-112 112m361.696 164.352c0 35.2-28.608 63.84-62.624 63.84h-0.064C795.296 731.936 684.704 736 601.28 736c-96.16 0-104.8-4.64-115.2-15.04l-148.704-148.704-190.72-190.72c-24.96-24.96-24.896-65.6 0.16-90.656l271.232-271.232c12.16-12.128 28.256-18.784 45.44-18.784 17.152 0 33.184 6.624 45.184 18.624l212.224 212.224 127.2 127.2c11.2 11.2 21.76 21.76 10.976 309.152"  horiz-adv-x="1024" />

    
    <glyph glyph-name="like_fill" unicode="&#59173;" d="M672 704a222.72 222.72 0 0 1-160-67.68A222.592 222.592 0 0 1 352 704c-123.52 0-224-101.184-224-225.6 0-52.256 18.144-103.2 52.928-145.536l285.952-293.984a62.528 62.528 0 0 1 90.208 0l287.808 296.032A227.136 227.136 0 0 1 896 478.4C896 602.816 795.52 704 672 704"  horiz-adv-x="1024" />

    
    <glyph glyph-name="like" unicode="&#59174;" d="M797.184 377.504l-284.384-294.016-284.16 292A162.752 162.752 0 0 0 192 478.4C192 567.488 263.808 640 352 640a159.36 159.36 0 0 0 133.28-72.16L512 527.36l26.72 40.48A159.488 159.488 0 0 0 672 640c88.224 0 160-72.512 160-161.6 0-37.536-12.992-74.08-34.816-100.896M672 704a222.72 222.72 0 0 1-160-67.712A222.624 222.624 0 0 1 352 704c-123.52 0-224-101.216-224-225.6 0-52.288 18.176-103.232 52.96-145.536l285.952-293.984a62.4 62.4 0 0 1 45.088-19.168c17.12 0 33.12 6.816 45.12 19.136l287.744 296.064A226.816 226.816 0 0 1 896 478.4C896 602.784 795.52 704 672 704"  horiz-adv-x="1024" />

    
    <glyph glyph-name="live_fill" unicode="&#59175;" d="M626.976 305.92l-160-117.728a31.936 31.936 0 0 0-44.736 6.816 31.424 31.424 0 0 0-3.968 29.12 31.904 31.904 0 0 0-2.272 11.2v192c0 2.72 0.896 5.152 1.568 7.68a31.424 31.424 0 0 0 4.16 26.624c10.176 14.432 30.08 18.016 44.576 7.936l160-111.616a32 32 0 0 0 0.64-52.032M800.32 635.328h-188.8l40.064 87.36c7.36 16.032 0.32 35.04-15.744 42.432a32.064 32.064 0 0 1-42.432-15.776l-52.32-114.016H459.52l-52.288 114.016A32.096 32.096 0 0 1 364.8 765.12a32.096 32.096 0 0 1-15.776-42.464l40.064-87.328H223.744a63.968 63.968 0 0 1-63.744-64v-480c0-35.296 28.608-64 63.744-64h576.544a63.936 63.936 0 0 1 63.68 64v480c0 35.264-28.544 64-63.68 64"  horiz-adv-x="1024" />

    
    <glyph glyph-name="live" unicode="&#59176;" d="M480 277.216v104.704l73.056-50.976L480 277.216z m146.304 80.672l-160 111.68a32 32 0 0 1-44.544-8 31.488 31.488 0 0 1-4.224-26.624c-0.64-2.528-1.536-4.96-1.536-7.68v-192c0-3.936 0.928-7.68 2.272-11.2a31.36 31.36 0 0 1 3.936-29.088 32 32 0 0 1 44.768-6.784l160 117.696a32.032 32.032 0 0 1-0.672 52zM224 91.296v480h576l0.256-480H224z m576.256 544h-188.8l40.096 87.36a32 32 0 1 1-58.208 26.688l-52.288-114.048H459.52l-52.32 114.048a32 32 0 1 1-58.176-26.688l40.064-87.36H223.744a63.936 63.936 0 0 1-63.744-64v-480c0-35.296 28.608-64 63.744-64h576.512a63.936 63.936 0 0 1 63.744 64v480c0 35.296-28.608 64-63.744 64z"  horiz-adv-x="1024" />

    
    <glyph glyph-name="lock_fill" unicode="&#59177;" d="M394.304 579.392A124.672 124.672 0 0 0 518.72 704a124.704 124.704 0 0 0 124.48-124.608V480h-248.896V579.392zM544 192a32 32 0 0 0-64 0v128a32 32 0 0 0 64 0v-128z m256.256 288H707.2V579.392A188.736 188.736 0 0 1 518.72 768c-103.904 0-188.416-84.608-188.416-188.608V480h-106.56A64 64 0 0 1 160 415.904v-319.84A64 64 0 0 1 223.744 32h576.512A64 64 0 0 1 864 96.064v319.84A64 64 0 0 1 800.256 480z"  horiz-adv-x="1024" />

    
    <glyph glyph-name="lock" unicode="&#59178;" d="M224 96.064v319.84L223.744 416 800 415.904 800.256 96 224 96.064z m170.304 483.328A124.672 124.672 0 0 0 518.72 704a124.704 124.704 0 0 0 124.48-124.608V480h-248.896V579.392zM800.256 480H707.2V579.392A188.736 188.736 0 0 1 518.72 768c-103.904 0-188.416-84.608-188.416-188.608V480h-106.56A64 64 0 0 1 160 415.904v-319.84A64 64 0 0 1 223.744 32h576.512A64 64 0 0 1 864 96.064v319.84A64 64 0 0 1 800.256 480zM512 352a32 32 0 0 1-32-32v-128a32 32 0 0 1 64 0v128a32 32 0 0 1-32 32"  horiz-adv-x="1024" />

    
    <glyph glyph-name="mail" unicode="&#59179;" d="M831.936 128L192 127.808V517.696l302.816-192.704a32.096 32.096 0 0 1 34.4 0L832 517.696 831.936 128zM192 640.224L192.096 640 832 640.224v-46.656l-320-203.616L192 593.568V640.224zM831.936 704H192.096A64 64 0 0 1 128 640.224v-512.416C128 92.64 156.768 64 192.096 64h639.84A64 64 0 0 1 896 127.808V640.224A64 64 0 0 1 831.936 704z"  horiz-adv-x="1024" />

    
    <glyph glyph-name="mail_fill" unicode="&#59180;" d="M512 320a32 32 0 0 0-17.184 4.992L128 558.432v-430.656A64 64 0 0 1 192.064 64h639.872A64 64 0 0 1 896 127.776V558.112l-366.816-233.12A32.096 32.096 0 0 0 512 320M831.936 704H192.064A64 64 0 0 1 128 640.192v-4.896l384-245.376 384 244.032v6.24A64 64 0 0 1 831.936 704"  horiz-adv-x="1024" />

    
    <glyph glyph-name="manage_fill" unicode="&#59181;" d="M416.096 728.224H223.904A64 64 0 0 1 160 664.32v-192.192a64 64 0 0 1 63.904-63.904h192.192A64 64 0 0 1 480 472.128V664.32a64 64 0 0 1-63.904 63.904M885.088 613.44l-135.904 135.872a64 64 0 0 1-90.368 0L640 730.496 522.912 613.44a63.456 63.456 0 0 1-18.656-45.056 63.456 63.456 0 0 1 18.656-45.312l18.816-18.816L640 405.92l18.816-18.816a63.904 63.904 0 0 1 90.368 0.032l117.088 117.12 18.816 18.784a63.936 63.936 0 0 1 0 90.368M416.096 344.224H223.904A64 64 0 0 1 160 280.32v-192.192a64 64 0 0 1 63.904-63.904h192.192A64 64 0 0 1 480 88.128V280.32a64 64 0 0 1-63.904 63.904M800.096 344.224h-192.192A64 64 0 0 1 544 280.32v-192.192a64 64 0 0 1 63.904-63.904h192.192A64 64 0 0 1 864 88.128V280.32a64 64 0 0 1-63.904 63.904"  horiz-adv-x="1024" />

    
    <glyph glyph-name="manage" unicode="&#59182;" d="M224 472.16V664.256l192 0.096 0.096-192.096L224 472.16z m192.096 256.096H223.904A64 64 0 0 1 160 664.32v-192.192a64 64 0 0 1 63.904-63.904h192.192A64 64 0 0 1 480 472.16V664.32a64 64 0 0 1-63.904 63.904zM224 88.16v192.096l192 0.096 0.096-192.096L224 88.16z m192.096 256.096H223.904A64 64 0 0 1 160 280.32v-192.192a64 64 0 0 1 63.904-63.904h192.192A64 64 0 0 1 480 88.16V280.32a64 64 0 0 1-63.904 63.904zM704.064 432.384l-135.84 135.84 135.712 135.84 135.904-135.744-135.776-135.936z m181.024 181.024l-135.904 135.904a64 64 0 0 1-90.368 0L522.912 613.44a63.456 63.456 0 0 1-18.656-45.056 63.456 63.456 0 0 1 18.656-45.312l135.904-135.936a63.904 63.904 0 0 1 90.368 0.032l135.904 135.904a63.936 63.936 0 0 1 0 90.368zM608 88.16v192.096l192 0.096 0.096-192.096-192.096-0.096z m192.096 256.096h-192.192A64 64 0 0 1 544 280.32v-192.192a64 64 0 0 1 63.904-63.904h192.192A64 64 0 0 1 864 88.16V280.32a64 64 0 0 1-63.904 63.904z"  horiz-adv-x="1024" />

    
    <glyph glyph-name="message" unicode="&#59183;" d="M800 192v-17.888h-184.128c-29.664 0-61.184-18.848-74.912-44.832L512 74.56l-28.96 54.752c-13.728 25.952-45.248 44.8-74.912 44.8H224V640h576v-448z m5.312 512H218.688C186.336 704 160 676.512 160 642.752v-471.392c0-33.76 26.4-61.248 58.816-61.248h189.312c5.92 0 15.712-5.728 18.368-10.752l38.048-71.968 2.912-4.544c11.168-14.528 27.392-22.848 44.544-22.848 17.152 0 33.376 8.32 44.544 22.848l40.96 76.512c2.464 4.608 11.968 10.752 18.368 10.752h189.472c32.352 0 58.656 27.488 58.656 61.248V642.752C864 676.512 837.664 704 805.312 704zM336 448c-12.352 0-23.488-4.8-32-12.448A47.68 47.68 0 0 1 288 400c0-14.176 6.24-26.752 16-35.552a47.68 47.68 0 0 1 32-12.448 48 48 0 0 1 0 96M688 448a48 48 0 0 1 0-96c12.352 0 23.488 4.8 32 12.448 9.76 8.8 16 21.376 16 35.552a47.68 47.68 0 0 1-16 35.552 47.68 47.68 0 0 1-32 12.448M512 448c-12.352 0-23.488-4.8-32-12.448a47.68 47.68 0 0 1-16-35.552c0-14.176 6.24-26.752 16-35.552A47.68 47.68 0 0 1 512 352c12.352 0 23.488 4.8 32 12.448 9.76 8.8 16 21.376 16 35.552a47.68 47.68 0 0 1-16 35.552A47.68 47.68 0 0 1 512 448"  horiz-adv-x="1024" />

    
    <glyph glyph-name="message_fill" unicode="&#59184;" d="M688 352a48 48 0 1 0 0 96 48 48 0 0 0 0-96M512 352a48 48 0 1 0 0 96 48 48 0 0 0 0-96m-176 0a48 48 0 1 0-0.032 95.968A48 48 0 0 0 336 352M805.312 704H218.688C186.336 704 160 676.512 160 642.752v-471.392c0-33.792 26.4-61.248 58.816-61.248h189.344c5.888 0 15.648-5.728 18.304-10.752l38.08-71.968 2.912-4.544c11.136-14.496 27.36-22.816 44.48-22.848h0.032c17.152 0 33.376 8.32 44.576 22.816l40.992 76.544c2.432 4.576 11.936 10.752 18.336 10.752h189.504c32.32 0 58.624 27.456 58.624 61.248V642.752C864 676.512 837.664 704 805.312 704"  horiz-adv-x="1024" />

    
    <glyph glyph-name="mine" unicode="&#59185;" d="M512 64a318.432 318.432 0 0 0-215.648 84.256C351.264 166.016 443.008 192 509.952 192c68.064 0 162.048-26.976 216.608-44.704A318.24 318.24 0 0 0 512 64m0 224c-52.928 0-96 43.104-96 96.064v95.872A96.16 96.16 0 0 0 512 576c52.928 0 96-43.104 96-96.064v-95.872A96.16 96.16 0 0 0 512 288m0 416c176.448 0 320-143.552 320-320a318.016 318.016 0 0 0-59.136-184.704c-34.432 12-106.944 35.52-178.656 48.16C640.608 275.52 672 325.984 672 384.064v95.872A160.224 160.224 0 0 1 512 640c-88.224 0-160-71.808-160-160.064v-95.872c0-57.664 30.944-107.904 76.832-136.064-70.656-12.16-142.464-35.104-178.528-47.584A317.952 317.952 0 0 0 192 384c0 176.448 143.552 320 320 320m0 64C300.256 768 128 595.744 128 384s172.256-384 384-384 384 172.256 384 384S723.744 768 512 768"  horiz-adv-x="1024" />

    
    <glyph glyph-name="mine_fill" unicode="&#59186;" d="M512 64a318.432 318.432 0 0 0-215.648 84.256C351.264 166.016 443.008 192 509.952 192c68.064 0 162.048-26.976 216.608-44.704A318.24 318.24 0 0 0 512 64z m-160 324.672v91.264A160.224 160.224 0 0 0 512 640c88.224 0 160-71.808 160-160.064v-95.104c0-10.24-1.184-20.192-3.008-29.888l-0.928-4.576a159.296 159.296 0 0 0-22.528-53.28l-1.984-2.944a163.2 163.2 0 0 0-41.056-40.96l-2.016-1.376a159.136 159.136 0 0 0-88.48-26.816 159.232 159.232 0 0 0-88.672 26.88l-1.792 1.248a162.144 162.144 0 0 0-41.12 41.024l-2.048 3.04a159.264 159.264 0 0 0-22.432 53.184l-0.928 4.608a160.896 160.896 0 0 0-3.008 29.856v3.84zM512 768C300.256 768 128 595.744 128 384s172.256-384 384-384 384 172.256 384 384S723.744 768 512 768z"  horiz-adv-x="1024" />

    
    <glyph glyph-name="mobilephone_fill" unicode="&#59187;" d="M736 288H288l0.032 384L736 672.256l0.096-384.288L736 288z m-192-160h-64a32 32 0 0 0 0 64h64a32 32 0 0 0 0-64z m191.968 608H288.032A64 64 0 0 1 224 672.256v-576.512A64 64 0 0 1 288.032 32h447.936A64 64 0 0 1 800 95.744V672.256A64 64 0 0 1 735.968 736z"  horiz-adv-x="1024" />

    
    <glyph glyph-name="mobilephone" unicode="&#59188;" d="M735.968 96L288 95.744V224h447.968v-128zM288 672.256L288.032 672 736 672.256 735.968 288H288V672.256zM735.968 736H288.032A63.968 63.968 0 0 1 224 672.256v-576.512C224 60.608 252.704 32 288.032 32h447.936A63.968 63.968 0 0 1 800 95.744V672.256A63.968 63.968 0 0 1 735.968 736zM480 128h64a32 32 0 0 1 0 64h-64a32 32 0 0 1 0-64"  horiz-adv-x="1024" />

    
    <glyph glyph-name="more" unicode="&#59189;" d="M288 439.136A63.264 63.264 0 0 1 256 448a64 64 0 1 1 0-128c11.712 0 22.56 3.392 32 8.896 19.04 11.072 32 31.488 32 55.104 0 23.648-12.96 44.064-32 55.136M544 439.136A63.264 63.264 0 0 1 512 448c-11.712 0-22.56-3.36-32-8.864-19.04-11.072-32-31.488-32-55.136 0-23.616 12.96-44.032 32-55.104 9.44-5.504 20.288-8.896 32-8.896s22.56 3.392 32 8.896c19.04 11.072 32 31.488 32 55.104 0 23.648-12.96 44.064-32 55.136M768 448c-11.712 0-22.56-3.392-32-8.864-19.04-11.104-32-31.52-32-55.136 0-23.616 12.96-44.032 32-55.136 9.44-5.472 20.288-8.864 32-8.864a64 64 0 1 1 0 128"  horiz-adv-x="1024" />

    
    <glyph glyph-name="narrow" unicode="&#59190;" d="M448.544 400H256a32 32 0 0 1 0-64l146.976 0.192-233.6-233.568a32 32 0 0 1 45.248-45.248l233.664 233.632v-147.264a32 32 0 1 1 64 0v192.512a63.84 63.84 0 0 1-63.744 63.744M838.624 694.624a31.968 31.968 0 0 1-45.248 0L576 477.248V624a32 32 0 0 1-64 0v-192.544c0-35.136 28.608-63.712 63.744-63.712h192.512a32 32 0 1 1 0 64l-147.488-0.224 217.856 217.856a31.968 31.968 0 0 1 0 45.248"  horiz-adv-x="1024" />

    
    <glyph glyph-name="offline_fill" unicode="&#59191;" d="M645.568 358.4h-256a32 32 0 0 0 0 64h256a32 32 0 0 0 0-64M512 768C300.288 768 128 595.712 128 384c0-211.744 172.288-384 384-384 211.744 0 384 172.256 384 384 0 211.712-172.256 384-384 384"  horiz-adv-x="1024" />

    
    <glyph glyph-name="offline" unicode="&#59192;" d="M512 64c-176.448 0-320 143.552-320 320S335.552 704 512 704s320-143.552 320-320-143.552-320-320-320m0 704C300.256 768 128 595.744 128 384s172.256-384 384-384 384 172.256 384 384S723.744 768 512 768M645.536 422.4h-256a32 32 0 0 1 0-64h256a32 32 0 0 1 0 64"  horiz-adv-x="1024" />

    
    <glyph glyph-name="order_fill" unicode="&#59193;" d="M640 416.032h-256a32 32 0 0 0 0 64h256a32 32 0 0 0 0-64m0-160h-256a32 32 0 0 0 0 64h256a32 32 0 0 0 0-64M800.256 768H223.744A64 64 0 0 1 160 703.936v-639.84A64 64 0 0 1 223.744 0h576.512A64 64 0 0 1 864 64.096V703.936A64 64 0 0 1 800.256 768"  horiz-adv-x="1024" />

    
    <glyph glyph-name="order" unicode="&#59194;" d="M224 64.064V703.904L223.744 704 800 703.904 800.256 64 224 64.064zM800.256 768H223.744A64 64 0 0 1 160 703.904v-639.84A64 64 0 0 1 223.744 0h576.512A64 64 0 0 1 864 64.064V703.904A64 64 0 0 1 800.256 768zM640 480h-256a32 32 0 0 1 0-64h256a32 32 0 0 1 0 64M640 320h-256a32 32 0 0 1 0-64h256a32 32 0 0 1 0 64"  horiz-adv-x="1024" />

    
    <glyph glyph-name="other" unicode="&#59195;" d="M779.776 416h-387.2a32 32 0 0 1 0-64h387.2a32 32 0 0 1 0 64M779.776 224h-387.2a32 32 0 0 1 0-64h387.2a32 32 0 0 1 0 64M256 608a32 32 0 1 1 0-64 32 32 0 0 1 0 64M392.576 544h387.2a32 32 0 0 1 0 64h-387.2a32 32 0 0 1 0-64M256 416a32 32 0 1 1 0-64 32 32 0 0 1 0 64M256 224a32 32 0 1 1 0-64 32 32 0 0 1 0 64"  horiz-adv-x="1024" />

    
    <glyph glyph-name="people_fill" unicode="&#59196;" d="M813.728 256c-3.904 1.728-58.56 25.6-129.312 45.792a883.616 883.616 0 0 1-72.608 17.568c36.096 30.592 59.552 75.68 59.552 126.656v123.104A167.168 167.168 0 0 1 504.192 736c-92.16 0-167.2-74.72-167.2-166.88v-123.104c0-52.352 24.768-98.624 62.72-129.248-25.472-5.408-50.112-11.904-72.8-18.688a1098.656 1098.656 0 0 1-115.648-41.664C182.016 244.672 160 211.808 160 180v-131.68l1.696-4.992c9.504-27.936 35.136-46.688 63.808-46.688h572.992a65.536 65.536 0 0 1 64.96 56.96l0.544 126.4c0 31.584-21.952 64.384-50.272 76"  horiz-adv-x="1024" />

    
    <glyph glyph-name="people" unicode="&#59197;" d="M800 60.672l-574.496-0.032A2.464 2.464 0 0 0 224 61.344v118.656c0 5.856 5.92 14.944 12.096 17.44 1.056 0.448 69.408 30.272 149.952 50.464 41.248 10.336 85.632 18.208 125.952 18.208 36.64 0 76.736-6.496 114.816-15.456a1061.6 1061.6 0 0 0 161.856-53.536c5.312-2.176 11.328-11.296 11.328-17.12v-119.36zM400.992 569.12A103.136 103.136 0 0 0 504.16 672a103.168 103.168 0 0 0 103.2-102.88v-123.104a103.168 103.168 0 0 0-103.2-102.88 103.136 103.136 0 0 0-103.168 102.88v123.104zM813.728 256c-3.904 1.728-58.56 25.6-129.312 45.76a883.616 883.616 0 0 1-72.608 17.6c36.096 30.592 59.552 75.68 59.552 126.656v123.104A167.168 167.168 0 0 1 504.192 736c-92.16 0-167.2-74.72-167.2-166.88v-123.104c0-52.352 24.768-98.624 62.72-129.28-25.472-5.376-50.112-11.872-72.8-18.656a1098.656 1098.656 0 0 1-115.648-41.664C182.016 244.672 160 211.808 160 180v-131.68l1.696-4.992c9.504-27.936 35.136-46.72 63.808-46.72h572.992a65.536 65.536 0 0 1 64.96 56.96l0.544 126.4c0 31.616-21.952 64.416-50.272 76.032z"  horiz-adv-x="1024" />

    
    <glyph glyph-name="picture_fill" unicode="&#59198;" d="M799.936 174.016V96l-407.648-0.16 0.064 0.032-90.496-0.032 0.96 0.96 332.448 317.952 164.704-150.24v-90.496zM416 576c52.96 0 96-43.072 96-96s-43.04-96-96-96c-52.928 0-96 43.072-96 96s43.072 96 96 96zM800.32 736H223.744A63.776 63.776 0 0 1 160 672.256v-576.512C160 60.608 188.576 32 223.744 32H800.32A63.84 63.84 0 0 1 864 95.744V672.256A63.808 63.808 0 0 1 800.32 736z"  horiz-adv-x="1024" />

    
    <glyph glyph-name="picture" unicode="&#59199;" d="M392.32 95.808l242.912 242.944 164.992-164.992 0.032-77.76-407.968-0.192zM224 672l576 0.256 0.192-407.968-142.336 142.336a31.968 31.968 0 0 1-45.248 0L301.76 95.776H224V672z m576.256 64H223.712a63.808 63.808 0 0 1-63.68-63.744v-576.512C160 60.576 188.544 32 223.68 32h576.544A63.808 63.808 0 0 1 864 95.744V672.256A63.84 63.84 0 0 1 800.256 736zM416 512a31.68 31.68 0 0 0 32-32 31.68 31.68 0 0 0-32-32 31.68 31.68 0 0 0-32 32c0 17.952 14.048 32 32 32m0-128c52.928 0 96 43.072 96 96s-43.072 96-96 96-96-43.072-96-96 43.072-96 96-96"  horiz-adv-x="1024" />

    
    <glyph glyph-name="play" unicode="&#59200;" d="M384 143.712l299.68 231.552L384 606.848V143.68z m-64-65.152V672a32 32 0 0 0 51.552 25.312l384-296.704a32 32 0 0 0 0-50.656l-384-296.736A32 32 0 0 0 320 78.56z"  horiz-adv-x="1024" />

    
    <glyph glyph-name="play_fill" unicode="&#59201;" d="M755.552 400.64l-384 296.672a31.936 31.936 0 0 1-51.552-25.28v-593.504a32 32 0 0 1 51.552-25.28l384 296.704a32 32 0 0 1 0 50.656"  horiz-adv-x="1024" />

    
    <glyph glyph-name="playon_fill" unicode="&#59202;" d="M626.976 342.592l-160-117.76a32 32 0 0 0-44.736 6.784 31.36 31.36 0 0 0-3.968 29.12A32.128 32.128 0 0 0 416 272v192c0 2.688 0.928 5.12 1.568 7.68a31.424 31.424 0 0 0 4.16 26.624 32 32 0 0 0 44.576 7.936l160-111.616a32.096 32.096 0 0 0 0.64-52.032M512 768C300.288 768 128 595.712 128 384.032c0-211.744 172.288-384 384-384 211.744 0 384 172.224 384 384 0 211.68-172.256 383.936-384 383.936"  horiz-adv-x="1024" />

    
    <glyph glyph-name="playon" unicode="&#59203;" d="M512 64c-176.448 0-320 143.552-320 320S335.552 704 512 704s320-143.552 320-320-143.552-320-320-320m0 704C300.256 768 128 595.744 128 384s172.256-384 384-384 384 172.256 384 384S723.744 768 512 768M480 313.92v104.736l73.056-50.976L480 313.92z m146.304 80.704l-160 111.648a32.032 32.032 0 0 1-44.544-8 31.488 31.488 0 0 1-4.224-26.592c-0.64-2.56-1.536-4.96-1.536-7.68v-192c0-3.968 0.928-7.68 2.272-11.2a31.36 31.36 0 0 1 3.936-29.12 32 32 0 0 1 44.768-6.784l160 117.696a32.032 32.032 0 0 1-0.672 52.032z"  horiz-adv-x="1024" />

    
    <glyph glyph-name="praise_fill" unicode="&#59204;" d="M866.272 513.664c-15.584 19.296-39.872 30.336-66.592 30.336h-164.992c23.168 67.232 5.376 145.024 4.352 149.312a30.944 30.944 0 0 1-4.928 10.656A95.808 95.808 0 0 1 544 768a95.84 95.84 0 0 1-95.456-90.72H448V656a111.328 111.328 0 0 0-37.984-83.392c-16-14.208-35.904-23.776-58.016-26.976V32h384.16c32.352 0 63.04 24.96 69.888 56.8l75.904 354.208c5.504 25.76-0.192 51.488-15.68 70.656M192.192 544C156.8 544 128 515.2 128 479.776v-383.552C128 60.832 156.64 32 191.84 32H288V544H192.192z"  horiz-adv-x="1024" />

    
    <glyph glyph-name="praise" unicode="&#59205;" d="M819.36 456.416l-75.904-354.176c-0.576-2.688-5.088-6.24-7.296-6.24L352 96.16V480h2.88v1.056A176.224 176.224 0 0 1 512 656V672a32.032 32.032 0 0 0 64 0h2.048c6.336-32.8 11.968-106.496-23.872-139.904A32 32 0 0 1 576 476.672c4.64 0 9.152 1.344 13.44 3.328h210.24c7.424 0 13.376-2.336 16.832-6.592 3.296-4.096 4.32-10.144 2.848-16.992zM192.192 480H288v-383.808H192L192.192 480z m674.08 33.664c-15.584 19.296-39.872 30.336-66.592 30.336h-164.992c23.168 67.2 5.376 145.024 4.352 149.312a30.944 30.944 0 0 1-4.928 10.656 95.808 95.808 0 0 1-90.112 64 95.84 95.84 0 0 1-95.456-90.688H448V656c0-61.76-50.24-112-112-112H192.192C156.8 544 128 515.2 128 479.776v-383.552C128 60.8 156.64 32 191.84 32h544.32c32.352 0 63.04 24.96 69.888 56.8l75.904 354.208c5.504 25.76-0.192 51.488-15.68 70.656z"  horiz-adv-x="1024" />

    
    <glyph glyph-name="prompt_fill" unicode="&#59206;" d="M544 320a32 32 0 0 0-64 0v256a32 32 0 0 0 64 0v-256z m-32-160a32 32 0 1 0 0 64 32 32 0 0 0 0-64z m0 608C300.256 768 128 595.744 128 384s172.256-384 384-384 384 172.256 384 384S723.744 768 512 768z"  horiz-adv-x="1024" />

    
    <glyph glyph-name="prompt" unicode="&#59207;" d="M512 64c-176.448 0-320 143.552-320 320 0 104.384 50.464 196.928 128 255.392A318.016 318.016 0 0 0 512 704c72.096 0 138.432-24.256 192-64.608 77.536-58.464 128-151.008 128-255.392 0-176.448-143.552-320-320-320m192 652.032A381.216 381.216 0 0 1 512 768c-69.984 0-135.424-19.136-192-51.968C205.408 649.504 128 525.76 128 384c0-211.744 172.256-384 384-384s384 172.256 384 384c0 141.76-77.408 265.504-192 332.032M512 480a32 32 0 0 1-32-32v-256a32 32 0 0 1 64 0v256a32 32 0 0 1-32 32M512 608a32 32 0 1 1 0-64 32 32 0 0 1 0 64"  horiz-adv-x="1024" />

    
    <glyph glyph-name="qrcode_fill" unicode="&#59208;" d="M416.096 736H223.904A64 64 0 0 1 160 672.096v-192.192A64 64 0 0 1 223.904 416h192.192A64 64 0 0 1 480 479.904V672.096A64 64 0 0 1 416.096 736M416.096 352H223.904A64 64 0 0 1 160 288.096v-192.192A64 64 0 0 1 223.904 32h192.192A64 64 0 0 1 480 95.904v192.192A64 64 0 0 1 416.096 352M800.096 736h-192.192A64 64 0 0 1 544 672.096v-192.192A64 64 0 0 1 607.904 416h192.192A64 64 0 0 1 864 479.904V672.096A64 64 0 0 1 800.096 736M704 288a32 32 0 0 1-32-32v-192a32 32 0 1 1 64 0v192a32 32 0 0 1-32 32M576 288a32 32 0 0 1-32-32v-192a32 32 0 1 1 64 0v192a32 32 0 0 1-32 32M832 352a32 32 0 0 1-32-32v-256a32 32 0 1 1 64 0v256a32 32 0 0 1-32 32"  horiz-adv-x="1024" />

    
    <glyph glyph-name="qrcode" unicode="&#59209;" d="M224 479.904V672l192 0.096 0.096-192.096L224 479.904zM416.096 736H223.904A64 64 0 0 1 160 672.096v-192.192A64 64 0 0 1 223.904 416h192.192A64 64 0 0 1 480 479.904V672.096A64 64 0 0 1 416.096 736zM224 95.904V288l192 0.096 0.096-192.096L224 95.904zM416.096 352H223.904A64 64 0 0 1 160 288.096v-192.192A64 64 0 0 1 223.904 32h192.192A64 64 0 0 1 480 95.904v192.192A64 64 0 0 1 416.096 352zM608 479.904V672l192 0.096 0.096-192.096-192.096-0.096zM800.096 736h-192.192A64 64 0 0 1 544 672.096v-192.192A64 64 0 0 1 607.904 416h192.192A64 64 0 0 1 864 479.904V672.096A64 64 0 0 1 800.096 736zM704 288a32 32 0 0 1-32-32v-192a32 32 0 0 1 64 0v192a32 32 0 0 1-32 32M576 288a32 32 0 0 1-32-32v-192a32 32 0 0 1 64 0v192a32 32 0 0 1-32 32M832 352a32 32 0 0 1-32-32v-256a32 32 0 0 1 64 0v256a32 32 0 0 1-32 32"  horiz-adv-x="1024" />

    
    <glyph glyph-name="redpacket_fill" unicode="&#59210;" d="M607.84 415.872a22.368 22.368 0 0 0 0-31.68l-64-64-0.224-0.16H608a22.4 22.4 0 0 0 0-44.8h-73.6v-51.2H608a22.4 22.4 0 0 0 0-44.8h-73.6v-19.2a22.4 22.4 0 1 0-44.8 0v19.2H416a22.4 22.4 0 1 0 0 44.8h73.6v51.2H416a22.4 22.4 0 1 0 0 44.8h64.384l-0.224 0.16-64 64a22.368 22.368 0 1 0 31.68 31.68l64-64 0.16-0.224 0.16 0.224 64 64a22.4 22.4 0 0 0 31.68 0M512 487.616c-14.976 0-29.952 2.688-42.208 8.128l-277.76 123.68v-555.328A64 64 0 0 1 255.744 0h512.448A64 64 0 0 1 832 64.096V621.216l-277.824-125.44c-12.16-5.44-27.168-8.16-42.176-8.16M768.224 768H255.776A64 64 0 0 1 192 703.936v-14.464l303.776-135.232c7.872-3.52 24.576-3.52 32.416 0L832 691.392v12.544A64 64 0 0 1 768.224 768"  horiz-adv-x="1024" />

    
    <glyph glyph-name="redpacket" unicode="&#59211;" d="M256 64.064V590.784l213.792-95.04c12.224-5.44 27.2-8.16 42.208-8.16 14.976 0 29.952 2.72 42.176 8.128l213.856 95.04 0.16-526.72L256 64.032zM768 703.904V660.8l-239.808-106.56c-7.872-3.52-24.544-3.52-32.384 0L256 660.8V703.904L255.776 704 768 703.904zM768.192 768H255.776A64 64 0 0 1 192 703.904v-639.84A64 64 0 0 1 255.776 0h512.416A64 64 0 0 1 832 64.064V703.904A64.032 64.032 0 0 1 768.192 768zM608 275.2a22.4 22.4 0 1 1 0 44.8h-64.352l0.192 0.16 64 64a22.368 22.368 0 1 1-31.68 31.68l-64-64-0.16-0.224-0.16 0.224-64 64a22.4 22.4 0 0 1-31.68-31.68l64-64 0.192-0.16H416a22.4 22.4 0 1 1 0-44.8h73.6V224H416a22.4 22.4 0 1 1 0-44.8h73.6v-19.2a22.4 22.4 0 1 1 44.8 0v19.2H608a22.4 22.4 0 1 1 0 44.8h-73.6v51.2H608z"  horiz-adv-x="1024" />

    
    <glyph glyph-name="refresh" unicode="&#59212;" d="M832 384a32 32 0 0 1-32-32c0-158.784-129.216-288-288-288s-288 129.216-288 288 129.216 288 288 288c66.208 0 129.536-22.752 180.608-64H608a32 32 0 0 1 0-64h160a32 32 0 0 1 32 32V704a32 32 0 0 1-64 0v-80.96A350.464 350.464 0 0 1 512 704C317.92 704 160 546.08 160 352s157.92-352 352-352 352 157.92 352 352a32 32 0 0 1-32 32"  horiz-adv-x="1024" />

    
    <glyph glyph-name="remind_fill" unicode="&#59213;" d="M512 17.44c48.96 0 91.296 25.504 114.56 63.04h-229.12a134.304 134.304 0 0 1 114.56-63.04M858.144 162.496l2.24 1.088c-17.664 33.12-63.424 128.992-63.424 174.176v158.336C796.96 646.016 669.12 768 512 768c-157.12 0-284.928-121.984-284.928-271.904v-160.672c0-39.52-38.88-126.272-63.36-171.68l2.24-1.12a30.24 30.24 0 0 1-5.952-17.184c0-17.664 15.04-32 33.536-32h160.48v1.056H696v-1.056h134.496c18.496 0 33.504 14.336 33.504 32 0 6.4-2.464 12.032-5.856 17.056"  horiz-adv-x="1024" />

    
    <glyph glyph-name="remind" unicode="&#59214;" d="M612.576 177.44H244.896c20.96 44.448 49.184 112.64 49.184 157.984v160.64C294.08 610.784 391.84 704 512 704c120.16 0 217.92-93.248 217.92-207.904v-158.336c0-45.952 28.448-115.36 49.44-160.32h-166.784z m-100.576-96c-24.704 0-46.08 12.96-57.728 32h115.456c-11.648-19.04-33.024-32-57.728-32z m346.144 81.056l2.24 1.088c-17.664 33.12-63.424 128.96-63.424 174.176v158.336C796.96 646.016 669.12 768 512 768c-157.12 0-284.96-121.984-284.96-271.904v-160.672c0-39.52-38.848-126.272-63.328-171.68l2.24-1.12a30.24 30.24 0 0 1-5.952-17.184c0-17.664 15.04-32 33.536-32h189.12c15.008-55.04 67.072-96 129.344-96 62.272 0 114.336 40.96 129.344 96h189.12c18.528 0 33.536 14.336 33.536 32a30.4 30.4 0 0 1-5.856 17.056z"  horiz-adv-x="1024" />

    
    <glyph glyph-name="return" unicode="&#59215;" d="M694.272 86.976l-295.808 286.848 295.36 274.752a32 32 0 0 1-43.616 46.848l-320-297.696a32 32 0 0 1-0.512-46.4l320-310.304a32.032 32.032 0 0 1 44.576 45.952"  horiz-adv-x="1024" />

    
    <glyph glyph-name="right" unicode="&#59216;" d="M822.464 630.656a28.256 28.256 0 0 1-43.072-1.312l-352.96-417.664-181.92 212.992a28.288 28.288 0 0 1-43.104 1.088 37.12 37.12 0 0 1-0.96-48.256l204.096-238.944c5.76-6.752 13.696-10.56 22.016-10.56h0.096a29.088 29.088 0 0 1 22.048 10.656L823.68 582.4c11.52 13.728 11.008 35.328-1.216 48.256"  horiz-adv-x="1024" />

    
    <glyph glyph-name="scan" unicode="&#59217;" d="M832 416H192a32 32 0 0 1 0-64h640a32 32 0 0 1 0 64M800.256 736H223.712a63.808 63.808 0 0 1-63.68-63.744V512a32 32 0 1 1 64 0l-0.32 160 576.32 0.256V512a32 32 0 1 1 64 0V672.256A63.84 63.84 0 0 1 800.224 736M832 288a32 32 0 0 1-32-32l0.256-160L224 95.744V256a32 32 0 0 1-64 0v-160.256C160 60.608 188.608 32 223.744 32h576.512A63.84 63.84 0 0 1 864 95.744V256a32 32 0 0 1-32 32"  horiz-adv-x="1024" />

    
    <glyph glyph-name="select_fill" unicode="&#59218;" d="M808.384 330.752c15.008 14.72 20.416 32.928 14.848 49.984-5.568 16.96-20.64 28.48-41.312 31.488l-144.352 21.12c-6.944 1.056-18.4 9.472-21.504 15.776l-64.544 131.84c-9.28 18.944-24.864 29.76-42.816 29.76s-33.536-10.816-42.816-29.76l-64.576-131.84c-3.104-6.336-14.528-14.752-21.472-15.744l-144.352-21.152c-20.736-3.04-35.84-14.56-41.344-31.552-5.568-17.056-0.128-35.264 14.848-49.92l104.448-102.592c5.056-4.992 9.472-18.752 8.288-25.824l-24.672-144.832c-2.816-16.48 0.64-31.488 9.792-42.304 8.224-9.728 20-15.104 33.152-15.104 8.64 0 17.536 2.336 26.4 7.04l129.12 68.416c4.576 2.432 21.76 2.432 26.336 0l129.152-68.416c22.144-11.712 45.856-8.096 59.52 8.064 9.12 10.816 12.576 25.824 9.76 42.304l-24.64 144.8c-1.184 7.104 3.2 20.864 8.288 25.856l104.448 102.592zM301.248 494.656a32 32 0 0 1 32 32V695.36a32 32 0 0 1-64 0v-168.704a32 32 0 0 1 32-32M429.248 590.656a32 32 0 0 1 32 32V695.36a32 32 0 0 1-64 0v-72.704a32 32 0 0 1 32-32M589.248 590.656a32 32 0 0 1 32 32V695.36a32 32 0 0 1-64 0v-72.704a32 32 0 0 1 32-32M717.248 503.36a32 32 0 0 1 32 32V704a32 32 0 0 1-64 0v-168.64a32 32 0 0 1 32-32"  horiz-adv-x="1024" />

    
    <glyph glyph-name="select" unicode="&#59219;" d="M659.104 273.824c-20.16-19.776-31.296-54.336-26.56-82.24l19.136-112.352-99.84 52.896h-0.032c-24.992 13.216-61.28 13.216-86.272 0l-99.84-52.928 19.104 112.416c4.768 27.84-6.4 62.4-26.56 82.208L277.056 353.6l112.064 16.416c27.904 4.096 57.216 25.504 69.696 50.944l49.888 101.888 49.92-101.888c12.448-25.408 41.76-46.848 69.664-50.944l112.096-16.416-81.28-79.808z m149.28 56.928c14.976 14.72 20.384 32.928 14.816 49.92-5.536 17.056-20.608 28.48-41.312 31.552l-144.32 21.12c-6.944 1.056-18.4 9.44-21.504 15.808l-64.576 131.84c-9.28 18.88-24.864 29.76-42.816 29.76-17.92 0-33.536-10.88-42.816-29.76l-64.544-131.84c-3.136-6.336-14.56-14.752-21.504-15.776l-144.32-21.12c-20.704-3.04-35.776-14.528-41.344-31.552-5.568-17.024-0.16-35.232 14.848-49.952l104.448-102.624c5.056-4.96 9.472-18.688 8.288-25.76l-24.672-144.896c-3.52-20.8 2.784-38.752 17.344-49.28 7.488-5.44 16.192-8.128 25.408-8.128 8.608 0 17.6 2.368 26.56 7.104l129.088 68.384c6.208 3.264 20.288 3.264 26.432 0l129.088-68.384c18.496-9.824 37.44-9.44 52 1.056 14.56 10.496 20.864 28.448 17.344 49.28l-24.672 144.896c-1.216 7.04 3.2 20.768 8.288 25.76l104.448 102.592zM301.216 494.656a32 32 0 0 1 32 32V695.328a32 32 0 0 1-64 0v-168.672a32 32 0 0 1 32-32M429.216 590.656a32 32 0 0 1 32 32V695.328a32 32 0 0 1-64 0v-72.672a32 32 0 0 1 32-32M589.216 590.656a32 32 0 0 1 32 32V695.328a32 32 0 0 1-64 0v-72.672a32 32 0 0 1 32-32M717.216 503.328a32 32 0 0 1 32 32V704a32 32 0 0 1-64 0v-168.672a32 32 0 0 1 32-32"  horiz-adv-x="1024" />

    
    <glyph glyph-name="send" unicode="&#59220;" d="M832 320a32 32 0 0 1-32-32l0.256-192L224 95.744 223.744 672H416a32 32 0 0 1 0 64H223.744A63.84 63.84 0 0 1 160 672.256v-576.512C160 60.608 188.608 32 223.744 32h576.512A63.84 63.84 0 0 1 864 95.744V288a32 32 0 0 1-32 32M800.544 736H640a32 32 0 0 1 0-64l114.944 0.192-265.6-265.568a32 32 0 0 1 45.28-45.248l265.664 265.632v-115.264a32 32 0 1 1 64 0V672.256A63.84 63.84 0 0 1 800.544 736"  horiz-adv-x="1024" />

    
    <glyph glyph-name="service_fill" unicode="&#59221;" d="M712.32 240a224.736 224.736 0 0 0-193.984-112 224.832 224.832 0 0 0-194.048 112 32 32 0 1 0 55.36 32 160.8 160.8 0 0 1 138.688-80 160.48 160.48 0 0 1 138.56 80A32 32 0 1 0 712.32 240M800.256 640H223.744A63.808 63.808 0 0 1 160 576.256v-512.416C160 28.608 188.576 0 223.744 0h576.512A63.872 63.872 0 0 1 864 63.808V576.224A63.84 63.84 0 0 1 800.256 640M512 736c52.928 0 96-43.072 96-96h64c0 88.224-71.776 160-160 160s-160-71.776-160-160h64c0 52.928 43.072 96 96 96"  horiz-adv-x="1024" />

    
    <glyph glyph-name="service" unicode="&#59222;" d="M224 63.808V576l576 0.224L800.256 64 224 63.808zM512 736c52.928 0 96-43.04 96-96h-192c0 52.96 43.072 96 96 96z m288.256-96H672c0 88.224-71.776 160-160 160s-160-71.776-160-160H223.744A63.84 63.84 0 0 1 160 576.224v-512.416C160 28.608 188.608 0 223.744 0h576.512A63.872 63.872 0 0 1 864 63.808V576.224A63.84 63.84 0 0 1 800.256 640zM700.64 283.712a32 32 0 0 1-43.712-11.68A160.608 160.608 0 0 0 518.304 192a160.576 160.576 0 0 0-138.592 80 32 32 0 0 1-55.424-32.032 224.896 224.896 0 0 1 194.016-112 224.768 224.768 0 0 1 194.016 112 32 32 0 0 1-11.68 43.744"  horiz-adv-x="1024" />

    
    <glyph glyph-name="setup_fill" unicode="&#59223;" d="M672 394.56c0-88.192-71.776-160-160-160s-160 71.808-160 160c0 88.256 71.776 160 160 160s160-71.744 160-160m209.472 104.96a31.776 31.776 0 0 1-32.832 23.2 62.688 62.688 0 0 0-16.64 1.152 63.808 63.808 0 0 0-42.88 30.72 63.744 63.744 0 0 0 2.112 67.488 32 32 0 0 1-3.68 39.968c-19.584 20.16-41.632 37.248-64.832 52.544-35.808 23.616-74.976 41.92-116.864 52.448a31.968 31.968 0 0 1-36.48-16.832 63.68 63.68 0 0 0-57.28-35.616h-0.192a63.68 63.68 0 0 0-57.28 35.616 32 32 0 0 1-36.48 16.832c-41.92-10.56-81.056-28.832-116.864-52.48-23.2-15.264-45.248-32.352-64.832-52.512a32 32 0 0 1-3.712-40 63.68 63.68 0 0 0 2.112-67.456A63.392 63.392 0 0 0 192 523.968a62.816 62.816 0 0 0-16.672-1.28 31.52 31.52 0 0 1-32.8-23.168A383.136 383.136 0 0 1 128 394.56c0-35.616 4.864-70.912 14.528-104.864a31.904 31.904 0 0 1 32.8-23.2c5.664 0.32 11.264-0.224 16.672-1.312a63.776 63.776 0 0 0 40.736-98.048 32 32 0 0 1 3.712-40c19.584-20.16 41.632-37.248 64.8-52.544 35.84-23.68 74.976-41.92 116.896-52.416a31.936 31.936 0 0 1 36.48 16.832A63.648 63.648 0 0 0 512 74.56c24.512 0 46.496-13.632 57.376-35.584a32 32 0 0 1 36.48-16.832c41.92 10.496 81.056 28.768 116.864 52.416 23.2 15.296 45.248 32.384 64.832 52.576a32 32 0 0 1 3.68 39.968 63.68 63.68 0 0 0-2.112 67.456c9.408 16.32 24.992 27.2 42.88 30.72a65.28 65.28 0 0 0 16.64 1.184c15.04-0.896 28.704 8.736 32.832 23.2A384.64 384.64 0 0 1 896 394.56c0 35.648-4.896 70.944-14.528 104.928"  horiz-adv-x="1024" />

    
    <glyph glyph-name="setup" unicode="&#59224;" d="M825.312 329.184a127.04 127.04 0 0 1-91.616-62.624 127.232 127.232 0 0 1-8.448-110.56 318.976 318.976 0 0 0-113.216-65.472A127.072 127.072 0 0 1 512 138.56a127.2 127.2 0 0 1-100.064-48 319.232 319.232 0 0 0-113.216 65.44 127.232 127.232 0 0 1-8.416 110.56 127.04 127.04 0 0 1-91.648 62.624 323.232 323.232 0 0 0 0 130.784 127.104 127.104 0 0 1 91.648 62.592 127.296 127.296 0 0 1 8.416 110.592 318.976 318.976 0 0 0 113.216 65.472A127.232 127.232 0 0 1 512 650.56c39.712 0 76.064 17.92 100.032 48.064a318.72 318.72 0 0 0 113.216-65.472 127.328 127.328 0 0 1 8.448-110.592 127.104 127.104 0 0 1 91.616-62.592 321.536 321.536 0 0 0 0-130.784m56.16 170.304a31.776 31.776 0 0 1-32.832 23.2 63.584 63.584 0 0 0-59.52 31.872 63.744 63.744 0 0 0 2.112 67.52 32 32 0 0 1-3.68 39.936 383.392 383.392 0 0 1-181.696 104.992 31.968 31.968 0 0 1-36.48-16.832A63.68 63.68 0 0 0 512 714.56a63.68 63.68 0 0 0-57.376 35.616 32 32 0 0 1-36.48 16.832 383.264 383.264 0 0 1-181.696-104.96 32 32 0 0 1-3.712-40 63.68 63.68 0 0 0 2.112-67.488 63.68 63.68 0 0 0-59.52-31.872 31.52 31.52 0 0 1-32.8-23.2A383.136 383.136 0 0 1 128 394.56c0-35.648 4.864-70.944 14.528-104.896a31.904 31.904 0 0 1 32.8-23.2 64.032 64.032 0 0 0 59.52-31.904c12.256-21.184 11.456-47.04-2.112-67.456a32 32 0 0 1 3.712-39.968 382.88 382.88 0 0 1 181.696-104.96 31.936 31.936 0 0 1 36.48 16.8A63.648 63.648 0 0 0 512 74.56c24.512 0 46.496-13.632 57.376-35.584a32 32 0 0 1 36.48-16.832 383.04 383.04 0 0 1 181.696 104.992 32 32 0 0 1 3.68 40 63.68 63.68 0 0 0-2.112 67.424 63.136 63.136 0 0 0 59.52 31.904c15.04-0.896 28.704 8.736 32.832 23.2A384.64 384.64 0 0 1 896 394.56c0 35.648-4.896 70.944-14.528 104.96M512 298.56c-52.928 0-96 43.104-96 96 0 52.96 43.072 96 96 96s96-43.04 96-96c0-52.896-43.072-96-96-96m0 256c-88.224 0-160-71.744-160-160 0-88.224 71.776-160 160-160s160 71.808 160 160c0 88.256-71.776 160-160 160"  horiz-adv-x="1024" />

    
    <glyph glyph-name="share_fill" unicode="&#59225;" d="M736 288a127.776 127.776 0 0 1-115.232-73.28l-204.896 117.056a30.848 30.848 0 0 1-9.696 3.2A127.68 127.68 0 0 1 416 384c0 6.656-0.992 13.088-1.984 19.456 0.608 0.32 1.28 0.416 1.856 0.768l219.616 125.472A127.328 127.328 0 0 1 736 480c70.592 0 128 57.408 128 128s-57.408 128-128 128-128-57.408-128-128c0-6.72 0.992-13.152 1.984-19.616-0.608-0.288-1.28-0.256-1.856-0.608l-219.616-125.472A127.328 127.328 0 0 1 288 512c-70.592 0-128-57.408-128-128s57.408-128 128-128a126.912 126.912 0 0 1 84.544 32.64 31.232 31.232 0 0 1 11.584-12.416l224-128c0.352-0.224 0.736-0.256 1.12-0.448C615.488 83.008 669.6 32 736 32c70.592 0 128 57.408 128 128s-57.408 128-128 128"  horiz-adv-x="1024" />

    
    <glyph glyph-name="share" unicode="&#59226;" d="M736 96c-35.296 0-64 28.704-64 64s28.704 64 64 64 64-28.704 64-64-28.704-64-64-64M288 320c-35.296 0-64 28.704-64 64s28.704 64 64 64 64-28.704 64-64-28.704-64-64-64M736 672c35.296 0 64-28.704 64-64s-28.704-64-64-64-64 28.704-64 64 28.704 64 64 64m0-384a127.776 127.776 0 0 1-115.232-73.28l-204.896 117.056a30.848 30.848 0 0 1-9.696 3.2A127.68 127.68 0 0 1 416 384c0 6.656-0.992 13.088-1.984 19.456 0.608 0.32 1.28 0.416 1.856 0.768l219.616 125.472A127.328 127.328 0 0 1 736 480c70.592 0 128 57.408 128 128s-57.408 128-128 128-128-57.408-128-128c0-6.72 0.992-13.152 1.984-19.616-0.608-0.288-1.28-0.256-1.856-0.608l-219.616-125.472A127.328 127.328 0 0 1 288 512c-70.592 0-128-57.408-128-128s57.408-128 128-128a126.912 126.912 0 0 1 84.544 32.64 31.232 31.232 0 0 1 11.584-12.416l224-128c0.352-0.224 0.736-0.256 1.12-0.448C615.488 83.008 669.6 32 736 32c70.592 0 128 57.408 128 128s-57.408 128-128 128"  horiz-adv-x="1024" />

    
    <glyph glyph-name="shielding_fill" unicode="&#59227;" d="M768 384c-41.408 0-79.68-13.312-111.072-35.68l267.392-267.392A190.752 190.752 0 0 1 960 192c0 105.856-86.112 192-192 192M576 192c0-105.888 86.112-192 192-192 41.408 0 79.68 13.312 111.072 35.68l-267.392 267.392A190.528 190.528 0 0 1 576 192M416 320H288a32 32 0 1 0 0 64h128a32 32 0 1 0 0-64m0-128H288a32 32 0 1 0 0 64h128a32 32 0 1 0 0-64M288 512h256a32 32 0 1 0 0-64H288a32 32 0 1 0 0 64m480.48-62.944c46.464 0 89.92-12.512 127.52-34.08V640.224A64 64 0 0 1 831.936 704H192.096A64 64 0 0 1 128 640.224v-512.448A64 64 0 0 1 192.096 64H545.824a255.296 255.296 0 0 0-34.4 128 257.088 257.088 0 0 0 257.056 257.056"  horiz-adv-x="1024" />

    
    <glyph glyph-name="shielding" unicode="&#59228;" d="M512.608 128H223.872A31.904 31.904 0 0 0 192 159.84L192.096 640h608.192c17.504 0 31.68-14.432 31.68-32.128v-161.856a32 32 0 0 1 64 0V607.872A96 96 0 0 1 800.32 704H192.096A64 64 0 0 1 128 640.224v-480.384A96 96 0 0 1 223.872 64h288.736a32 32 0 0 1 0 64M416 384H288a32 32 0 0 1 0-64h128a32 32 0 0 1 0 64M416 256H288a32 32 0 0 1 0-64h128a32 32 0 0 1 0 64M544 512H288a32 32 0 0 1 0-64h256a32 32 0 0 1 0 64M768 64c-70.592 0-128 57.408-128 128 0 23.68 6.88 45.568 18.144 64.608l174.464-174.464A126.304 126.304 0 0 0 768 64m0 256c70.592 0 128-57.408 128-128 0-23.68-6.88-45.568-18.144-64.608l-174.464 174.464A126.304 126.304 0 0 0 768 320m0 64c-105.888 0-192-86.112-192-192s86.112-192 192-192 192 86.112 192 192-86.112 192-192 192"  horiz-adv-x="1024" />

    
    <glyph glyph-name="smallscreen_fill" unicode="&#59229;" d="M742.624 553.376l-169.76-169.76 67.424 0.128a32 32 0 0 0 0-64h-128.544A63.84 63.84 0 0 0 448 383.488V512a32 32 0 1 0 64 0v-98.752l185.376 185.376a31.968 31.968 0 1 0 45.248-45.248zM352 159.744v-63.808H224V224h128v-64.256zM800.32 736H223.712A63.84 63.84 0 0 1 160 672.256V95.68C160 60.576 188.608 32 223.712 32H800.32A63.808 63.808 0 0 1 864 95.744V672.256A63.808 63.808 0 0 1 800.32 736z"  horiz-adv-x="1024" />

    
    <glyph glyph-name="smallscreen" unicode="&#59230;" d="M799.936 96L416 95.808V288H223.936L223.744 672 800 672.256 799.968 96zM224 95.744V224h128v-128.064l-105.184-0.192H224zM800.288 736H223.68A63.84 63.84 0 0 1 160 672.256v-576.544C160 60.576 188.608 32 223.68 32H800.32a63.808 63.808 0 0 1 63.68 63.744V672.256A63.808 63.808 0 0 1 800.32 736zM511.744 319.744h128.544a32 32 0 0 1 0 64l-67.424-0.128 169.76 169.76a31.968 31.968 0 1 1-45.248 45.248L512 413.248V512a32 32 0 1 1-64 0v-128.512c0-35.136 28.608-63.744 63.744-63.744"  horiz-adv-x="1024" />

    
    <glyph glyph-name="stealth_fill" unicode="&#59231;" d="M645.568 486.4h-256a32 32 0 0 0 0 64h256a32 32 0 1 0 0-64m0-128h-256a32 32 0 0 0 0 64h256a32 32 0 1 0 0-64m0-128h-256a32 32 0 0 0 0 64h256a32 32 0 1 0 0-64M512 768C300.288 768 128 595.744 128 384c0-211.712 172.288-384 384-384 211.744 0 384 172.288 384 384 0 211.744-172.256 384-384 384"  horiz-adv-x="1024" />

    
    <glyph glyph-name="stealth" unicode="&#59232;" d="M512 64c-176.448 0-320 143.552-320 320S335.552 704 512 704s320-143.552 320-320-143.552-320-320-320m0 704C300.256 768 128 595.744 128 384s172.256-384 384-384 384 172.256 384 384S723.744 768 512 768M645.568 422.4h-256a32 32 0 0 1 0-64h256a32 32 0 0 1 0 64M645.568 294.4h-256a32 32 0 0 1 0-64h256a32 32 0 0 1 0 64M645.568 550.4h-256a32 32 0 0 1 0-64h256a32 32 0 0 1 0 64"  horiz-adv-x="1024" />

    
    <glyph glyph-name="success_fill" unicode="&#59233;" d="M666.272 423.712l-175.616-192a31.904 31.904 0 0 0-23.616-10.4h-0.192a32 32 0 0 0-23.68 10.688l-85.728 96a32 32 0 1 0 47.744 42.624l62.144-69.6 151.712 165.888a32 32 0 1 0 47.232-43.2m-154.24 344.32C300.224 768 128 595.68 128 384c0-211.776 172.224-384 384-384 211.68 0 384 172.224 384 384 0 211.68-172.32 384-384 384"  horiz-adv-x="1024" />

    
    <glyph glyph-name="success" unicode="&#59234;" d="M512 64c-176.448 0-320 143.552-320 320S335.552 704 512 704s320-143.552 320-320-143.552-320-320-320m0 704C300.256 768 128 595.744 128 384s172.256-384 384-384 384 172.256 384 384S723.744 768 512 768M619.072 466.912l-151.744-165.888-62.112 69.6a32 32 0 1 1-47.744-42.624l85.696-96a32 32 0 0 1 23.68-10.688h0.192c8.96 0 17.536 3.776 23.616 10.4l175.648 192a32 32 0 0 1-47.232 43.2"  horiz-adv-x="1024" />

    
    <glyph glyph-name="suspend" unicode="&#59235;" d="M352 704a32 32 0 0 1-32-32v-608.832a32 32 0 1 1 64 0V672a32 32 0 0 1-32 32M672 704a32 32 0 0 1-32-32v-608.832a32 32 0 1 1 64 0V672a32 32 0 0 1-32 32"  horiz-adv-x="1024" />

    
    <glyph glyph-name="switch" unicode="&#59236;" d="M512 576c23.616 0 44.032 12.96 55.136 32 5.472 9.44 8.864 20.288 8.864 32a64 64 0 1 1-128 0c0-11.712 3.392-22.56 8.864-32 11.104-19.04 31.52-32 55.136-32M512 448c-23.616 0-44.032-12.96-55.136-32A63.584 63.584 0 0 1 448 384c0-11.712 3.392-22.56 8.864-32 11.104-19.04 31.52-32 55.136-32 23.616 0 44.032 12.96 55.136 32 5.472 9.44 8.864 20.288 8.864 32s-3.392 22.56-8.864 32c-11.104 19.04-31.52 32-55.136 32M512 192c-23.616 0-44.032-12.96-55.136-32A63.584 63.584 0 0 1 448 128a64 64 0 1 1 128 0c0 11.712-3.392 22.56-8.864 32-11.104 19.04-31.52 32-55.136 32"  horiz-adv-x="1024" />

    
    <glyph glyph-name="systemprompt_fill" unicode="&#59237;" d="M746.912 586.144a30.4 30.4 0 0 1-42.112-9.312 31.424 31.424 0 0 1 8.896-42.976c1.088-0.736 10.4-7.264 22.304-20.32 24.256-26.624 59.52-80.736 59.52-171.36 0-94.112-36.32-148.992-59.52-174.464-10.176-11.2-17.888-16.768-18.784-17.408a31.36 31.36 0 0 1-8.512-43.168c5.888-8.96 15.616-13.824 25.536-13.824 0.576 0 1.184 0.224 1.76 0.256a30.464 30.464 0 0 1 15.2 4.96c4.32 2.912 105.632 73.376 105.632 243.68 0 170.592-105.408 241.024-109.92 243.936M651.488 494.784a30.304 30.304 0 0 1-40.416-14.624 31.552 31.552 0 0 1 13.984-41.504c1.92-1.024 47.872-25.216 47.872-94.208 0-73.664-42.944-98.08-44.352-98.88a31.328 31.328 0 0 1-13.76-41.76 30.656 30.656 0 0 1 41.184-13.952c3.168 1.664 78.208 41.056 78.208 154.592 0 109.568-79.36 148.704-82.72 150.336M550.016 700.608a43.84 43.84 0 0 1-10.176 2.88c-10.176 1.6-25.056 0.256-40.992-14.272l-34.624-31.456-16.224-14.752-101.632-92.384H223.712a63.936 63.936 0 0 1-63.712-64v-205.504c0-35.264 28.608-64 63.712-64h85.632L448 91.072l50.848-46.208c12.864-11.648 25.024-14.912 34.592-14.912 2.4 0 4.352 0.416 6.4 0.768a44.48 44.48 0 0 1 10.272 2.688c7.808 3.456 25.888 14.784 25.888 45.408V655.328c0 0.864-0.256 1.6-0.288 2.432-0.736 19.936-10.08 35.904-25.696 42.848"  horiz-adv-x="1024" />

    
    <glyph glyph-name="systemprompt" unicode="&#59238;" d="M746.88 586.112a30.272 30.272 0 0 1-42.112-9.344 31.424 31.424 0 0 1 8.896-42.944c3.296-2.24 81.824-56.576 81.824-191.68 0-135.456-75.328-189.824-78.304-191.872a31.36 31.36 0 0 1-8.512-43.2 30.496 30.496 0 0 1 42.496-8.576c4.32 2.88 105.632 73.376 105.632 243.68 0 170.56-105.408 241.024-109.92 243.936M651.456 494.72a30.304 30.304 0 0 1-40.416-14.592 31.552 31.552 0 0 1 13.984-41.504c1.952-1.024 47.872-25.216 47.872-94.208 0-73.664-42.944-98.08-44.352-98.88a31.328 31.328 0 0 1-13.728-41.76 30.656 30.656 0 0 1 41.152-13.952c3.2 1.664 78.208 41.056 78.208 154.56 0 109.6-79.36 148.736-82.72 150.368M512 119.328l-64 58.176-104.768 95.264a32.064 32.064 0 0 1-21.568 8.32L224 281.056l-0.32 205.504h128.576c9.856-1.824 19.968 1.024 27.424 7.776l68.288 62.112 64 58.176v-495.296z m38.016 581.216c-7.84 3.456-28.512 9.248-51.2-11.392L448 642.944l-101.632-92.384H223.68A63.936 63.936 0 0 1 160 486.592v-205.536c0-35.264 28.576-63.968 63.68-63.968h85.632L448 91.008l50.88-46.24c12.832-11.648 24.992-14.912 34.56-14.912 7.392 0 13.28 1.952 16.672 3.456 7.808 3.456 25.92 14.784 25.92 45.408V655.264c0 21.152-9.728 38.048-26.016 45.28z"  horiz-adv-x="1024" />

    
    <glyph glyph-name="tailor" unicode="&#59239;" d="M831.554975 223.650566H735.713162v351.420148c0 17.642795-14.304305 31.9471-31.9471 31.9471H352.345402v95.841812c0 17.642795-14.304305 31.9471-31.9471 31.947101s-31.9471-14.304305-31.9471-31.947101v-95.841812h-95.841812c-17.642795 0-31.9471-14.304305-31.9471-31.9471s14.304305-31.9471 31.9471-31.9471H288.45069v-351.420148c0-17.642795 14.304305-31.9471 31.9471-31.9471h351.420148v-95.841812c0-17.642795 14.304305-31.9471 31.9471-31.9471s31.9471 14.304305 31.9471 31.9471V159.755854h95.841813c17.642795 0 31.9471 14.304305 31.9471 31.9471s-14.303281 31.947612-31.946076 31.947612z m-479.209573 0v319.473048h319.473048v-319.473048H352.345402z"  horiz-adv-x="1024" />

    
    <glyph glyph-name="task" unicode="&#59240;" d="M224 95.744L223.712 672H320v-31.68c0-35.456 28.64-64.32 63.872-64.32h256.256A64.16 64.16 0 0 1 704 640.32V672l96 0.256L800.256 96 224 95.744zM640 703.68L640.128 640 384 640.32V703.68L383.872 704 640 703.68zM799.84 736H695.04c-11.072 19.04-31.424 32-54.912 32h-256.256c-23.488 0-43.808-12.928-54.912-32H223.712A63.776 63.776 0 0 1 160 672.256v-576.512C160 60.608 188.608 32 223.744 32h576.512A63.84 63.84 0 0 1 864 95.744V672.256A64 64 0 0 1 799.84 736zM619.072 466.912l-151.744-165.888-62.112 69.6a32 32 0 1 1-47.744-42.624l85.696-96a32 32 0 0 1 23.68-10.688h0.192c8.96 0 17.536 3.776 23.616 10.4l175.648 192a32 32 0 0 1-47.232 43.2"  horiz-adv-x="1024" />

    
    <glyph glyph-name="task_fill" unicode="&#59241;" d="M666.304 422.464l-175.616-192c-6.08-6.624-14.656-10.4-23.648-10.4h-0.16a32.064 32.064 0 0 0-23.68 10.688l-85.728 96a32 32 0 1 0 47.744 42.624l62.112-69.6 151.712 165.888a32.032 32.032 0 0 0 47.264-43.2m133.568 312.32H736c-0.064 0 0-20.544 0-32.32v-63.36a64.16 64.16 0 0 0-63.808-64.384h-320.32A64.16 64.16 0 0 0 288 639.072v63.36c0 11.84-0.128 21.472-0.128 32.32H223.744A63.808 63.808 0 0 1 160 671.04v-576.512c0-35.168 28.576-63.744 63.744-63.744H800.32A63.808 63.808 0 0 1 864 94.496V671.04c0 35.136-28.8 63.744-64.128 63.744M668.608 746.56a42.56 42.56 0 0 1-36.8 21.44H395.84c-15.776 0-29.44-8.64-36.864-21.408a43.136 43.136 0 0 1-6.016-21.728v-42.496c0-23.84 19.2-43.2 42.88-43.2h235.968c23.616 0 42.816 19.36 42.816 43.2V724.864c0 8-2.272 15.264-6.016 21.696"  horiz-adv-x="1024" />

    
    <glyph glyph-name="tasklist_fill" unicode="&#59242;" d="M567.104 384c-11.104-19.04-31.488-32-55.104-32a63.68 63.68 0 0 0-55.072 32h110.176zM384 640h256V704h-256v-64z m447.936 0H704V725.376C704 745.984 687.232 768 640.16 768h-256.288C336.8 768 320 745.984 320 725.376V640H192.096A64.128 64.128 0 0 1 128 576v-129.536h768V576c0 35.296-28.736 64-64.064 64zM831.968 385.536c-2.496-0.64-4.896-1.536-7.584-1.536h-188.928c-14.304-55.04-63.968-96-123.456-96-59.456 0-109.12 40.96-123.456 96H128v-288c0-35.296 28.768-64 64.096-64h639.84A64.096 64.096 0 0 1 896 96v288h-64.032v1.536z"  horiz-adv-x="1024" />

    
    <glyph glyph-name="tasklist" unicode="&#59243;" d="M832.452066 638.935216H704.333401v85.520142c0 32.988074-28.884086 42.676865-63.951548 42.676865H383.694441c-35.098696 0-63.951548-9.545932-63.951548-42.676865v-85.520142h-128.118665c-35.668083 0-64.176845-28.619874-64.176845-64.096455v-480.740056c0-35.235923 28.79448-64.098503 64.176845-64.098503h640.827838c35.668083 0 64.176845 28.621923 64.176845 64.098503V574.838761c-0.000512 35.235411-28.79448 64.096455-64.176845 64.096455zM383.841396 703.03372h256.393502v-64.098504H383.841396v64.098504z m-192.217168-128.197007s640.905668-0.129034 640.905668 0.002048c0 0 0.015873-56.003688 0.027138-129.745923-2.521277 0.637488-4.945267 1.54738-7.664191 1.54738H191.545886c-0.013825 0-0.023554-0.007681-0.037379-0.007681 0.012289 72.96496 0.043523 128.204175 0.115721 128.204176zM567.245871 382.541715c-11.103041-19.078039-31.54259-32.048996-55.20798-32.048996-23.665391 0-44.10494 12.970957-55.207981 32.048996h110.415961z m265.206195-288.44301s-640.905668 0.131082-640.905668 0c0 0-0.043011 154.589002-0.040963 288.45069 0.013825 0 0.02765-0.007681 0.040963-0.00768h196.827562C402.671096 327.345511 452.372616 286.394216 512.038403 286.394216S621.405197 327.345511 635.702846 382.541715h189.191021c2.720972 0 5.150594 0.90938 7.67392 1.549428 0.015361-134.216018 0.003584-289.992437-0.115721-289.992438z"  horiz-adv-x="1024" />

    
    </font>
</defs>
</svg>
